<svg xmlns="http://www.w3.org/2000/svg" viewBox="0 0 400 400"><g fill-rule="evenodd"><path fill="#4ab659" d="M218.5.2q-.1.4-1 .5l-3.3.3-3.8.6c0 .3-2 1.1-3.4 1.4-1.7.4-6.6 2.2-7.9 3-1.2.7-1.6 2.4-.4 2.4q.9-.2 0 .7c-1.4 1.5-.6 3.2 12.6 29.8C228 72.5 226.1 70 235 69.2c6-.6 16.2-.3 20.6.5 5.2 1 5.2 1 16.6-7.4 6.9-5 8.6-6.8 8.6-8.7q-.1-1.2.4-.4c.6 1 1.4-.2 1.4-2.3l.2-4-.1-2.4q-.2-.1.1-1 .6-.7-.5-.4-.9.2-.5-.2.3-.5-.7-.6l-2.9-.3-1.1.2q-.7.2-1.5 0-.6 0-1 .3 0 .5-.6-.1-.4-.8-.4.1c-.2 1.6-.8 2.8-1.5 2.5q-.5-.1-.5.6 0 3.2-6.2 3.3l-4 .1v-4.7q0-6.5.5-3.4l.5 2.3c.2.7.7-1.8.8-3.6 0-1.8-.2-2.3-.8-2.8q-.7-.5-.6-.9.2-.5-.4-.3c-.6.2-.5-.2-.4-.4q.1-.3-1-.1c-.7 0-1.9 0-2.7-.4l-1.8-.4q-.3 0-.7-.5-.6-.7-1-.6-.6 0-.6-.4t-.4-.2-1.4-.8-.6-1q.8.1 0-.4-.5-.3-.9-.2t-.5-.8q-.3-1-1.3-1-.8 0-.7-.4t-.4-.6q-.6 0-.4.2c.4.6 0 .5-2.6-.6-1.3-.6-2.8-1-3.3-1-1.4 0-3.6-4.4-4.5-9.2-.4-2-.6-2.4-1.2-2.1q-.5.1-.6-.4t-.4.1-.4.1-.6-.7q-.6 0-.4.1-.1.3-2 .3c-1.7 0-2.3.1-2.8.7q-.7.7-1.5.6-.8-.2-1.4.1-1.4 1-2.8-2.4c-1-2.3-1.6-8.2-.9-8.6q.6-.3 0-.6-.3-.3-.5-1.4 0-1.1-.4-1.7c-.5-.6-1.3-.7-1-.1a.4.4 0 0 1 0 .6q-.4.1-.6-.7c-.2-.8-.2-.7-.2-.5m-.6 8.7c2 9.9 4.2 12 10.3 9.7 4.4-1.7 4.7-1.4 7 4.8 1.6 4.4 2.3 5.2 5.2 6 3.6 1.1 5.4 2 7.6 4 2.4 2 5 3.5 8.7 4.6 4.3 1.4 4.8 3 3.4 11.1-.2 1.6 1 2.3 5.7 3 4.3.6 5.7.1 7.7-2.6 2.2-2.9 3.3-3.8 5-4.1l1.3-.3v4.6l-.2 4.5-1.6 1.4c-1.4 1.3-7.6 6-14.4 10.7-2.8 2-4 2-9.6 1.1-4-.7-12.2-.8-19.5-.1-7.5.6-5.3 3.5-21.3-28.3-12.3-24.5-14.3-28.9-13.5-29.7 1-1 13.5-4.9 15.5-4.8l1.8.1zm-27.6-.4q-1.3.7-1.5 1.1t-.4.2-1 .4c-.7.7-.8.5-1 .4s-.4 0-.4.4q0 .8-.7 1.2c-.7.6-.8 4 0 4.9q.5.5 0 1a40 40 0 0 0-.4 10.9c.2 9.5.2 10.2-.5 10.2s-2-1.2-2-2q0-.4-.6-.1-.5.1-.6.6t-.6 1q-.7.7-.6.2t.5-.8q.6-.6-.1-.3t-1 1.2q-.6 1.2 0 .7.2-.1-.3.6l-.7 1c0 .7-2.6 2.6-3 2.2q-.6-.3-.8.1t.1.2q.5-.1.5.1c0 .5-1.2 2-1.2 1.6q-.1-.3-.8.6t-.8.6-.6.1q-.8.7-3.5 1-.5 0-.4.3.2.4-.6.2h-.7q0 .4-1.3.9l-15.6 5.5c.2.4-.7 1.3-1 1q-.2 0-.7.6-.7.8 0 .3.5-.2-.2.4-.7.5-1.4.6-1.5 0-.8 1 .4.6-.2 1.1t-.5 1-.4 1.1a6 6 0 0 0 0 5.2l.8 1.6.5-1.6q.5-1.4.6-1 .1.8 1.4 1.8c1.8 1.4 1.8 1.6-.2 2l-1.7.2 1 .8.9.9-.9-.2h-.7q.1.5-.7.6-1.7.6-1.5 0 0-.5.6-.2t.4-.4c-.2-.5-1.2-.7-4.6-.8-3.2 0-4.5-.3-5-.7q-.9-.6-1.9-.6-1.3 0-1.1-.2c.2-.2-.6-.2-1.3-.2-2 0-6.2-.6-8.7-1.2a16 16 0 0 0-4.1-.3c-2 .1-3.3-.6-2.8-1.7q0-.5-.3-.6-.6 0 0-.5.3-.5 0-1.1-.5-.7-.3 0 .4 1-.5.3-1.4-.9-.2-2 .6-.4 1.1 0 .4.5.9.5c.5 0 0-.2-.3-.4q-1-.5-.2-1.1.4-.6 0-.4-.3.3-.3-1t.3-1.2q.4 0 .3-.2-.1-.4-.5-.6-.6-.2.1-.7.8-.4 0-.4c-.8 0-.5 0 0-.4q.8-.4-.3-.4-.8 0-.9-.4t-.4-.2q-.4.3-.4-.2t-.6-.4c-.6.2-.6-.2-.6-.4q0-.4-.6-.3t-1-.3-.7-.4-.8-.3q-.7-.6-.3 0t-1 .4l-1.4.1q-.2.3-.8.2-.5-.2-.8.1c-.1.3-1.2.3-2.5.2l-3.6-.2q-1.2 0-1.3-.4l-1.4.2q-1.4.4-1.7.1T93 54c-2.2 1.1-2.3 2.2 0 1.8q2.5-.2.3.7c-1 .4-1 .6-.8 2.1q.3 1.6 0 1.2l-.7-.5q-.6 0-.4-1t-.2-1.7c-.5-.9-.3 3.3.4 5.7.2.9.4 2.3.4 3.3s.3 2.3.7 3.2l.7 1.5.1-1.3q.4-2.5 1 .2.5 2.4 3.3 5.8c1.3 1.4 1.7 2.7.5 1.6q-1.3-1.2-.5.5c.5.7.7 2.4.8 7.8.2 7.1.4 9.2 1 9.2q.4 0 .4.6c0 .8-1 .8-4.3 0-2.8-.7-4-.9-6.3-1.2l-2.6-.4q-6.7-1.2-7.8-.5l-2 .2q-1.5-.2-1.7.4-.1.5-.5.3t-.6.3q-.3.3.1.2.4-.2.7 0 .1.5-.8.5t-1 .7q-.1.9.4.1.4-.6.4-.1-.2 1.3-1.4.3-1-1.2-.2-.8.4.1.4 0 0-.4-1.2-1c-1.2-.5-1.2-.7-1.2-1q0-.5-.4-.6-.5-.2-1.5-1.8-1.3-1.9-.6-1.5.6.1-.4-.8t-.8-1.2-.4-.5q-.7-.4-.4-.7.1-.5-.7-1.2-1-.7-.5-.5c.5.2.4-.8 0-1.3q-.4-.2-.2.2t-.3.6-.3-.4q.2-.7-.3-.3t-.3-.2-1.5-.6l-4.1-.3q-2.6-.1-2.8.3t-.6.5c-2 .2-2.9.5-3.9 1.5q-1 1-1 1.6.1.8-.1.6-.4-.1-.3.7.3 2.1-1.9 1.8c-1.8-.4-5.5-.4-6.8 0q-1.1.3-.9-.1.3-.6-.5 0-.7.3-1 .2-.5-.2-1.8.4-1.8.7-2 .6H34l-2.2.2-2.5.4q-.4.1-.4-.3t-.3 0-1.3.3-1.4.2c-.5.2-1 .4-4.3 1q-.8 0-1.1.6c-.3.6-.5.4-.6.3s-.6 0-.9.2q-.5.5-1-.1-.3-.8-.3.1t-.6.6c-.8-.3-2.4 1.6-2.3 2.7q.2 1-.3 1t-.3 2.7c.2 2.5.8 4.5 1.3 4.5q.2 0 0-.5l1 .5q1 .8 1.5.6c.5-.2 0-.5-.5-.8s-.6-.7-.5-.9q.4-.1.9.3c.5.4 1.6.5 4.4.3q5.8-.4 3.3 1c-3 1.5-4.3 3.8-3.1 5.7 1 1.7 1 1.7-.7 2s-3.1 1.2-3.5 2q-.1.6.2.4.5-.3.2.7-.1.7.4-.4c.6-1.3.7-1.3 2.1-1q3 .4.3.7-3.9.7 1.9 5 2.2 1.6 1.7 2c-.4 0-.4.3.3 2 1.2 3 3.4 5 2.3 2.2q-.9-2.4.8 0c1.2 1.7 2.8 1.8 6.7.6s3.3-1.5 12.7 3.7l5.7 3.2c6.8 3.8 8.1 4.4 9.8 4.3l3.3-.1c1.5 0 1.6 0 1.8 1.1.3 1.7 1.5 3.8 2.3 3.8q.6 0 .4-.6-.7-1.5 2 1l1.8 1.4-1.4 2.3c-1.3 2.2-1.7 5.1-.7 5.1q.4 0 .4.6c0 .8.7.8 1-.1q.3-1 .6.2c.5 1.3 2.7 1.5 5.5.4 1.3-.6 16.8-5.8 34.5-11.7 34.1-11.3 35.8-12 37-13.8l4-14 5-19.1c2.4-9.3 2.2-10-3.8-13.6-3.6-2.1-5.6-3.7-4.8-3.7a27 27 0 0 1 4.4 2.5c7.2 4.5 7.5 4.4 15-8.1l9.3-15 5-8.3q.6-1.5 1-.5c1 1.6.5 2.3-14.3 26.8-6.5 10.8-7.5 10 19.2 15.2l11 2.2c11.6 2.4 11.3 2.6 17.4-9.7 5.6-11.1 5.7-9-.6-21.3a1731 1731 0 0 1-22-45.1c-.5-1.3-1.6-3-2.3-3.9S194 9.8 194 9.5s-.4-.8-.9-1q-.9-.1-1.1-.5-.4-.4-1.7.5m4.7 5.3c1 2.6 10.5 22.4 20.2 41.8 4.2 8.4 7.6 15.7 7.6 16.2a113 113 0 0 1-9.7 19c-1.2.7-2.2.5-22.5-3.6-22.7-4.6-21.7-4-18.5-9.3l16-26.5c1-2 1-6 .1-10.8s-.9-24.8 0-26.2c.8-1 5.4-3.4 5.8-2.9zm-13.2 5.1c-.1.3-.2 1.6-.1 3l.1 2.3.2-2.9c.2-3 .2-3.4-.2-2.4m4.4 21.3-.2 1.3q.2.9-.6 0-.4-.7-1.2-.7-1 .1 0-.6c1.1-.8 2.4-.8 2 0m-2 7.2c-.3.7-3.6 6.4-7.5 12.6l-9.3 15.3c-3.7 6.2-3.5 6.2-11.4 1.5-7-4.2-7-4.1-5.2-5.6q2.8-2.4-1.1-3.8c-3-1.2-3.2-1.4-2-3.9 2.8-5.6 4.5-6.6 22-12.3a26 26 0 0 0 11.3-7l2.7-2.8.4 2.3q.5 2.5 0 3.7m96.7-2.6q.4.8.3 1.3-.3.4-.3-.2-.1-.7-1.1-1.3-1.4-.7-.2-.6.8.1 1.3.8M111.2 57.4q1.7 1.3-.4 3.7c-1.5 1.7-1.5 1.7.7 5 2.6 3.8 2.9 4 6.4 4.4 3.3.3 4.5.5 14.5 2.4 5.2 1 7 1.1 9.2 1l2.6-.3L146 75c1.9 1.6 7.2 5.3 11.5 7.9 4 2.3 4 2.8 1.9 10.7l-5 18.9a56 56 0 0 1-4.5 14.4c-.6.6-10.8 4.2-34 12l-38.6 12.9-1.8.2.2-1.5.7-3.9.6-2.3-1.2-1.2q-1.2-1.2-2.5-2-1.7-1.3-2.6-3.1c-1.8-3-2.5-3.3-5.7-2.6l-2.6.7-3.3-1.7-8.3-4.6c-11.6-6.6-11.5-6.5-17.2-4.8-4.2 1.2-4.4 1.2-6.3-2.9-1-2-1.9-3-4.1-4.7l-3-2.3h1.5q1.4 0 2.5-.4l2.3-.6q2.4-.6-.3-3.8c-2-2.1-1.8-3.1.8-4.4 4.9-2.5 3-4.5-4-4.1-3.4.2-4.7 0-5.2-.3-2-1.7 1-5.4 6-7s20.5-3.3 23.5-2.6c2 .4 2.7.1 4.3-2.1q6.8-10 12.7 0c5.9 10 8.1 11.4 12.1 8 3.4-2.7 3.7-2.7 14.8-.9 12.9 2.1 15.2 1.5 12-3-1-1.5-1.5-4-1.8-10-.4-6.6-.7-7.6-3.2-10.8-3-3.7-3.4-4.7-3.4-7.9q0-2.7-.8-4.9c-1.6-4.2-2-3.8 3.2-3.4 5.4.3 7 .3 8.6-.2 1.7-.5 4.5-.2 5.4.6M285 57q-1.9.7-1.9 1 0 .6-1.3 1a56 56 0 0 0-11.8 8c-7.8 5.7-7.6 5.6-13.2 4.5-4.8-1-25.7-1-27.5 0-1.5.8-2.5 2.5-6.9 11.2-5.1 10.4-5.3 11-2.9 13.7a133 133 0 0 0 12.6 11c2.9 2 12 1.3 17.5-1.1l2.8-1.2h6.9l6.9.2 4.4-2.2c4.9-2.4 5.8-3.4 6.6-6.9.8-3.3 1.7-5 5.6-9.9A83 83 0 0 0 294.6 64q.4-.1 1-.8.6-1 0-.6-.6.3.1-.5c.8-.8 1-1.5.3-1.1q-.4.1-.4-.2t-.4-.2q-.5.2-.4-.2t-.4-.2c-.4.3-.4 0-.4 0s-.4-.5-.8-.5q-.8 0-.5.4.1.4-.2.1-.4-.2-.3-.6t-1-.8c-1.1-.5-1.2-.6-1.2-.8q0-.2-.9-.2c-1 0-2.3-.6-2-1s.3-.5-2.1.3m4 5.3a15 15 0 0 1 3.8 2.4c-.4 0-2 2.9-4.5 7.7a58 58 0 0 1-7.4 12.2c-4.6 5.7-5 6.4-6.1 10.1-1.1 3.8-1.7 4.4-5.8 6.2l-3.3 1.4H259c-6 0-6.7 0-8.9 1-4.6 2-5.5 2.2-10.6 2.5-6.1.3-5.7.5-12.8-5.7-6.1-5.3-6.8-6-6.8-7a135 135 0 0 1 9.7-19.4c1.6-1 22.2-1 27.2 0 5.8 1.3 5.5 1.5 19.3-9 4.8-3.6 7-5 7.6-5zm9.2 0q.1.4-.1.4c-.6 0-1.4 2-1 2.4q.3.3-.5 2.2c-6.2 12.7-6.3 13.7-3.2 16.6 1 .9 4.4 6.1 9.6 14.6 4.4 7.2 4.5 7.2 14.6 4 14.3-4.6 20.8-7.2 35.5-14.4 5.2-2.5 9.9-4.6 10.5-4.6 2.4 0 1.4-1.3-1.4-1.8q-2-.3-.6-.7 1-.3 1.4.1c1 .9 2.3.3 2.4-1q0-1.3-.4-1.2c-.4.2-8-.7-10.6-1.2l-3.6-.4c-1.4-.2-3.5-.5-4.6-.8-3.5-1-7.2-1.3-15.4-1.4-3.4 0-6-2.1-6-4.9 0-.6-2-2.9-2.6-3a75 75 0 0 1-11.2-1.5 53 53 0 0 1-8.8-2.2c-.7-.5-4.2-1.6-4-1.2M301 67a61 61 0 0 0 15.1 3c.6.5.4.5-7.8-.3-2.5-.2-2.7-.2-2.3.4q.6.6.1.9c-.6.3-3.4-.1-3.5-.6q-.2-.4-.8 0l-1 .3c-.4-.1-1.8 1.9-2.1 3-.4 1.6-1.4 2.3-1.4 1a19 19 0 0 1 2.5-6.8q.6-.3-.4-.5-.8-.4-.9-.6c0-.5.5-.5 2.5.2M93.6 71.3q0 .6.7 1.3.7 1 .4 0c-.2-.3-.3-1-.3-1.2s-.2-.6-.4-.6-.4.2-.4.5m230.8.7q0 .7.4 1t.4 1 .5 1q.4 0 0 .2c-.3 0-2.9-3.7-2.9-4.2h.8q.7.2.8 1m41.7 11.3q-.8.8-.9 1.4c0 2.3-28.4 14.9-46 20.3-9.1 2.8-9.8 3.7-6.6 7.7 5 6 1.5 14.4-10 24-4.5 3.8-5.1 4.5-6.9 7.9-.8 1.5-2 3.7-2.8 4.7l-1.4 2 .2 3.8c.5 7.2 1 8.5 5.5 12a48 48 0 0 1 9.4 9.9l1.2 3c.8 2.3 1.5 2.8 6 4.9q9.6 4.4 6.8-1.5c-1.8-3.7-.9-6.8 4.2-14 1.3-2 2.5-4 2.6-4.6q.4-2 3.8-3.4c4.4-1.8 7.2-4.8 7.2-7.6 0-5.3 4.5-10.8 8.1-10 2.9.7 6 .2 8.2-1.2 2.5-1.7 2.4-1.2 2.6-12.8.2-8 .3-9.2 1.3-12.8 2-7.8 2.6-10 3.2-13.8a26 26 0 0 1 6.5-15c2.3-2.7 1.8-4.4-1.1-3.8q-.7.2.1-.7c1.5-1.6 3.9.6 3.2 3l-.2 1 .8-.8c1-.8 1-2.7.2-3.6-1-1-4.2-1-5.2 0m-314.9.5q-.8 1-.6 1t0 .4l-.7.2c-.3-.3 1.5-2.6 2-2.6q.2.1-.7 1m237.3 1.1a24 24 0 0 0-8.5 12.7c-1.4 5-1.8 5.5-7.4 7.8-5.3 2.1-6.7 2.3-13.6 1.6q-10.1-1-6.8 7.2c1.3 3.4 1 4.4-2.6 8-2.9 2.9-3.4 4-2.3 5.5.7 1 32.4 15.8 39.8 18.6 2.6 1 4 .2 5.8-3.6 1.8-3.6 1.7-3.4 6.1-7.2q11.6-9.7 12.1-16c.3-2.7 0-3.3-3.1-7.7-1.6-2.2-4.4-6.6-6.3-9.8l-6-9.6-3.2-5.5q-1.6-3.4-4-2M167 86.4c-2 .9-2.4 2-8.6 26.2-3.4 13.4-3.6 14.5-3.2 16 .5 1.7 17 18.2 43.9 44 5.8 5.5 5.7 5.6 12.5-4.4l10.4-15c3.6-5.2 8.3-12.3 10.4-15.8 3.4-5.7 4.2-6.8 7.6-10 10.9-10.4 10.8-10.3 8.7-13.4-2-3-2.9-3.2-10-3.2-5.4 0-6.7-.1-7.5-.7-1.2-.8-7.5-6.2-11.8-10.1-4.3-4-4.2-3.9-25.2-8.6L180 88.2c-8.3-2-11.7-2.4-13-1.8m15.9 4.6 15.7 3.6c15 3.1 15.2 3.2 24.6 11.9 8 7.3 7.5 7 15.5 7.1 9 0 9.7 1.7 3.4 7.2-6.8 6-7.3 6.6-12.7 15.6-10 16.6-24 37.2-25.3 37.2q-1.8 0-36.8-34.5c-10-10-10.5-10.4-10.5-11.9 0-1.3 4.5-19.6 8.2-33.6 1.9-6.8.6-6.6 17.9-2.6m106.3-1.6q0 .6-.7 1.3-.8.8-1.6 2.2-1.6 2.6-2.5 2.1c-.6-.4.4-2.5 1.7-3.5q1.2-.9 2-1.8 1.2-1.5 1.1-.3m-272.9 5q-.6.7-1 .8-.7 0 .3-1 1.7-1.7.7.2m258 14.6q-.6.5-1 .6t-.6.4-1.7.7c-2 .3-1.6-.5.7-1.5s3.4-1 2.6-.2m-249.1 2.1q-.1 1.1-1.1-.3c-.7-1-.2-1.9.5-1q.5.8.6 1.3m234.8-.9c4 1.2 5.1 2.6 2.2 2.6-1.5 0-2.3.9-1.5 1.7 1 .9.6 3-.5 3.6a2 2 0 0 0-1 1.5q-.2 1-.8.9t-1.1 1.4c-1 2.8-1 3.4-.4 3.8 2.5 1.3-.2 2.3-3.3 1.3-3.3-1.2-3.3-1.3-.9-4q5.4-5.8 2.1-10c-2.4-3.2-.1-4.3 5.2-2.8m-19.2 20.5a117 117 0 0 0-11 16.3c-.6 2.2 0 3.1 5 7.6 16.4 14.5 18.4 16.8 18.4 21.3 0 4.8 1.4 5.1 7.3 1.5 4.2-2.5 18.6-10.4 24.1-13.1 4.5-2.2 4.8-3 4-8.2-1-6-1.7-7-5.8-8.8L254.6 134c-10.3-5-11.5-5.2-13.8-3.3m-96 2.5-12.2 3.8a1132 1132 0 0 0-44 14.6c-5.7 1.9-6.6 3.2-4.4 6.1 1.7 2.3 1.7 2.4-.1 3.1q-4 2-4.2 1-.1-.2 0 1.6c0 2.1.7 4.2 1.1 4.2q.3 0 0-1.2t.7-1.9q1.1-.9.3 0-1.4 2 5.3 9.4c1.4 1.5 3.1 3.7 3.9 4.7 1.6 2.3 8.2 6.4 14.1 8.9 5.9 2.4 6.6 3.5 7.5 10.7.4 4 1 4.8 4.6 7.1l8.5 5.6c9.8 6.4 9.4 6.7 12.3-7.8l4.2-20.5a677 677 0 0 0 7.4-39.9c.8-4.1 1.3-7.8 1.1-8.2-.8-2.2-2.3-2.6-6.1-1.3m9.5 1.9c-.9 1-1.3 2.8-3 11.9-4.8 27.9-9.2 51-12.1 64.1q-1.7 7 1.7 6.9c2 0 18.3-8.4 33.5-17.1l9.8-5.6 7-4.2 6.2-3.9q5.8-3.4 4.9-6.5c-.2-.5-10.4-11.1-22.8-23.6-23.7-23.9-23.6-23.8-25.2-22m-5.9.9-.8 4.7-2.2 12.1c-1.7 9.8-3 16.7-6.2 32.6l-3.8 18.9c-1.4 7.5-1.8 8.4-3.1 7.6-2.1-1-16.2-10.4-17.2-11.3s-1.1-1.1-1.1-5c0-6.9-.3-7.2-12.4-13.2-7.8-3.8-8.3-4.1-9.4-6-.7-1-2.2-2.9-3.4-4.2l-3.4-3.8q-1.2-1.4-2.1-2-2.1-1 1.2-2.6c4-2 4.5-3.5 2.3-6q-2.3-2.4.4-3.3l44.2-14.7c16.5-5.2 17-5.3 17-3.8m30.3 23c25 25 23.2 22.2 17.1 26.3-14.4 9.8-52.9 31.2-54.7 30.5-1-.4-.9-2 .7-9.3 1.9-8.8 7-34.7 9.6-49.3 3.4-19 3.5-19.2 4-19.8 1-1 .6-1.2 23.3 21.5M71.2 142.7c0 .4.9 1.3 1.3 1.3q.3-.1-.1-.8c-.4-.8-1.2-1.1-1.2-.5m155.4 10.5c-1.3.5-2.6 2-9 11.2l-8.5 11.7c-4.2 5.8-3.3 8.3 4.7 12.8l5.2 3.1 4.2 2.5 6 3.6c4 2.6 10.3 6 14.2 7.7l8.4 4c10.1 4.9 10.3 4.5 4.2-9.2-5.8-13.1-6-13.7-6-20.7 0-8.1.7-7.1-14.2-20.5l-5.6-5q-2-2-3.6-1.2m53.4 17c-14.7 7.6-24 13.1-25.4 15s-1 2.9 10.2 27c2.5 5.4 3.6 6 7.8 3.7 3.7-2 31.6-18.2 35.4-20.5l5.3-3.1q5.6-3.2-2.4-5.7c-4.4-1.4-5.8-2.7-6.5-5.8a10 10 0 0 0-4-6.2l-4.8-4.4c-5.6-5.4-5-5.4-15.6 0m48.9 11.5c-3.3.9-7 3.9-4.7 3.9q1-.2.1.7a5 5 0 0 0-.9 1.8c-.6 2.6-9.2 8.1-35.8 23.1-15.6 8.8-15.7 9-5.4 14a440 440 0 0 1 29 16c2.2 1.3 3.2 1 12-3.2a185 185 0 0 1 11-5.2c5.6-2.2 10-5 11.8-7.7 1.5-2 1.4-2.6-1.4-6.7a37 37 0 0 1-5.3-9.3q.2-.3 1.3 1.5l2.6 4.5q.1.4.8 1.1 1 1 .8 1.2c-.2.2.5 1 1.2 1.6s1.2 1.4 1.2 1.6.3.7.6 1c1 .8.8-.8-.2-2l-3.2-5c-2.6-4.2-4.7-6.8-5.4-6.8q-2-.2 2.4-4.4c3.6-3.6 4.2-4.7 3-6q-.8-1-.5-1 .5.1 1.4 1.2l.9 1.2.3-1c.3-1.2-.5-3-1.3-3-1.3 0-5.8-5.7-6.6-8.4q-1.3-4.4-3-4.4-1 0-1.4-.4c-.8-.7-2.1-.7-5.3.1m7.8 2c.6.6 1 1.9 1.2 2.8q.3 1.6.8 2t.5 1q0 1 .3 1.1c.8 1 1.3 2.6.7 2.4a24 24 0 0 1-3.6-7.1q-1.2-3.2-3-2.8-.8.2-.8-.3c0-1 3-.4 4 .8m5.8 11.5q1.2 1.7-.5 0-2.2-2-.7-1.3.6.3 1.2 1.3m-141.6 1c-3.7.4-3.8.4-3.6.7q0 .2-.6.9t-1 .2q-.1-.4-.2.4 0 1.3-2 1.3c-.9 0-2.6 1.8-2.2 2.4v.9c-.5.7-.5 1.3-.6 18.8s0 18-2 15.7a9 9 0 0 0-2.4-1.5c-1-.5-3-1.7-4.2-2.6l-5.2-3.6-4-2.6q-.6-.4-.4-.6.2-.4-.7-.3c-1 0-1 0-1.1-.2l-2.8-1.8c-1.4-.8-2.7-1.8-2.9-2s-.3-.3-.3 0-.5-.1-1.2-.6-1.3-.8-1.5-.8q-.4 0-.6-.3c-.2-.5-5.9-3.1-7.4-3.4-1.8-.4-1.3.6.7 1.5q1.5.6 1.6 1 0 .9-1.6-.3c-4.2-3-6.8-2.7-12.7 1.6-4.7 3.5-6.2 1.8 17.7 19.8 28.3 21.4 27 20.3 25.2 22.3-1.5 1.7-1.7 3.5-2 19.5 0 5.5-.3 10-.4 10.3s-.5 5-.8 11.3c0 2.3-.2 4.4-.4 4.7-.4.6-1 6.5-1.2 12.2q-.3 9.3-1 10.9c-.2.5-.5 2.1-.6 3.6a335 335 0 0 1-3.2 27.4c0 1.7-.7 2-7.4 3.7-.8.2-4.6 1.7-6.8 2.7a69 69 0 0 1-9 3.3l-6.4 2-1 .2a28 28 0 0 1-5.8 2.4 59 59 0 0 1-9 2.6q-.8.1-1.1.5t-.6.3h-.6c-.2.3-3 1.4-6.5 2.5a282 282 0 0 0-16 5.5q-.5-.2-1 .2t-.6.2-.5.1q-.7.5-2 1c-3.2.9-3.6 2.3-.8 2h1.9l-1.2.6-2.6 1.1q-3.4 1.6.6 1.3c10.9-1.2 24.4-1.5 85-1.7 34.4 0 68.3-.4 75.2-.6a247 247 0 0 1 33.6.1 68 68 0 0 0 13.4 1.4l1.6-.1-1.6-.7-3.6-1.5-9.2-3.5-3.7-1.2q-2-.6-2.1-1c0-.4 2 0 3.5.7q1 .5 2.6.8c1.6.3 1.5.4 1.5.6s.6.4 1.2.5l2.5.8 3 1.1q1.6.5 1.7.8.2.3 1.6.3c3.3.2.9-1.2-6.1-3.6a210 210 0 0 1-26.4-9.7 52 52 0 0 0-7.7-2.5l-4.6-1.7-12-4.3c-8.5-3.5-17.2-6-17.2-4.9q0 .4.9.8l.9.3h-.9c-1.8.1-2.5-2-3.1-9.3l-.8-6.8c-.3-2-.7-5-.8-6.8l-.6-6c-.6-4.2-2-19.4-2.6-28.6-.8-12-2.1-27.5-3-36.8-1.2-11-1.9-9.5 7-16l10-7.6a236 236 0 0 1 14.2-10.7l6-4.6 10.6-8.2 1.9-1.2-1.1-1c-4.5-4.1-14.5-7.5-17.5-5.8l-1.5.6-1 .7c-.6.8-4.6 3.4-5.2 3.4l-2 1q-1.5 1-2.6 1.1c-1 .1-.8 0-.5.2q1.5.5-1.3 1.5a7 7 0 0 0-2.5 1.6q-.9.9-1 .7-.2-.2-.3.2c0 .4-3.4 2.2-4.3 2.2q-.4 0-.3.3c.2.3-1.3 1-2 .8q-.2 0 0 .4c.3.5-1.4 1.2-2 .9q-.3-.1 0 .2.1.5-.8.9t-1 .8-.9.6l-3.7 3c-4.3 4.2-4.1 4.8-4.5-14l-.3-14.9-2.5-2.3-2.2-2.4c.4 0 1.8.9 2.7 1.8 1.1 1.2 2 1.3 1.6.3l-.5-1.4q-.2-.6-.7-.7-.6 0-.6-.5-.1-.7-1.3-1.5l-3.6-3.2-2.6-2.4-.8-.3q-.5-.2-.3-.5l.1-.3zm-89.8 2.5q0 1.3.6 2.1c.6.9 1-1.3.4-2.8q-.9-1.4-1 .7m91.6 1.7q1.6 1.3 2.1 1.4.3 0 .2.2-.3.2-1-.2c-1-.5-5.4 2.5-9.4 6.3-.8.7-1.5-1.7-.8-3a36 36 0 0 1 7.2-6.1zm-9.5 4.7c-.2.3-.4 1.8-.5 3.3l-.3 2.8v-3c-.1-3 0-3.3 1-3.6zm-82.7.7c-.5.9.8 3.7 3 6q5 5.8 6.2 9.3c2 6.3 3.1 6.8 9.6 4.7q7.4-2.4 4.7-5.5a258 258 0 0 0-22.3-14.6q-.7-.6-1.2 0m-1.8 1c0 1 1 3.5 1.9 4.4q1.8 1.7.5-.8l-1.6-2.9q-.8-1.3-.8-.7m85.6 12.1q0 6 .7 8.5c.4 2 .5 3.3.2 6-.4 3.7-.3 6.2 0 8.6q1.4 7.8-9.3.2a121 121 0 0 0-12.3-8l-1.9-1.1a66 66 0 0 1-12.7-9.1q-4-3-1-1.5a745 745 0 0 1 32.4 19.6c2.8 2 3.1.8 3.1-11.9 0-9.9.3-17.7.7-17.4zm-69.5-2.2 5.4 3.8c1.9 1.3 1 2.1-3.8 3.5-2.7.8-3.3.3-4-3-.4-1.1-1.3-3.3-2.1-4.8-2.4-4-2-4 4.5.5m-16.6-2.7q-1 .9-1.7 5.1c0 .8-.4 2-.6 2.5s-.6 2.4-.8 4l-1 5.7c-.3 1.5-.6 3.5-.6 4.3s-.3 3-.6 4.6c-.5 2.4-.6 3.4-.2 4.6.4 1.5 1.2 2 1.2.9 0-.9.2-.8 1.8.8 2 2 1.9 2.5-1.2 2.8s-4 2-7.8 14.5l-1 3-.5.9c-1.2 5-2.4 9.3-2.7 9.9-.4.8 0 3.4.6 4q.4.5.4-.2c0-1 .7-.9 1 .1.6 1.7 2.7.9 15.2-6.2a517 517 0 0 1 39-21c6.5-2.9 6.4-2.8 5.2-4.4l-.9-1.3 1.2.7c1.7.8 2.2-.6.7-2-.6-.4-2.2-2-3.6-3.3s-3-2.5-3.2-2.5q-.6 0-.9-.6-.1-.5-.7-.6t-.6-.3l-8.4-6.4c-4.5-3.6-6.3-4.5-6.8-3.7q-.2.3-.8 0c-.8-.5-3.5-.5-6 0-3.8 1-4.6.1-5.8-5.8-1.5-7.3-6.7-12.6-9.9-10m2.7 1.4q-1.3 0-1.6 1.6-.5 1.2-.7.8c-.4-1.3 1-2.8 2.5-2.7q1.4 0-.2.3m1 1c1.9 1 2.3 2 3.6 7.5 2 9.1 3 10 10.3 7.9l3.5-.8c.7 0 14 10.4 21.5 17l2.3 2-1.7.7-3.3 1.4c-2.4.8-31 16.2-37.5 20.1a139 139 0 0 1-14.1 7.6q-1 1.3-.8-1.3c.3-2 7.2-24.5 7.9-25.8q.5-.9 2.6-1.5c2.6-.8 3.3-1.5 3.3-3.2 0-1.6-2-3.6-3.3-3.3-.9.3-1-1.3-.1-5.9l1.4-8.4a51 51 0 0 1 3-14.6zm80.8 8c0 1.8-.1.5-.1-2.8s0-4.7.1-3.1zm64.5-5.6q.1 1.8-15 11l-11 7.1c-10.3 6.7-12.8 8-13.3 6.6-.3-.8.8-1.8 4.5-4.1l7.2-4.4 21.5-13.6c5.4-3.4 6.1-3.7 6.1-2.6m19.3 9.7c-.9.4-2.3 1.4-3.2 2.3-3.9 3.7-5.7 5.2-11 9.4l-5.5 4.5a63 63 0 0 1-9.4 7.4l-1.9 1.7-3.1 2.8-2.6 2c-1 1-1.7 1.3-3 1.1q-.8-.1 0 .4t-.2.6q-.8.4-1.1.9t-.7.3q-.5 0-.9.5-.6.8.1.3t0 .4c-.7.8-.7 5.5-.1 8.8l.4 2 .3-1.5c.2-.8.2-2.5 0-3.7-.2-2.1.3-3.8 1.2-3.8q.3 0-.1.5c-.6.5-.6 2.8-.1 5.9.2 1.2.4 4 .5 6.2l.3 4-.5-3.8q-1-6.9-1.4-1c-.2 3.8.5 6.5 1.5 5.6q.7-1 1 .3c.3 1.4.6 7.8.3 6.7q-.3-.9-1-1.1c-.8-.2-.6 3.3.3 7.4l.6 3.5.4 2c.7 2 1.3.3.8-2.2l-.4-3.4c0-2 .7 0 1.1 3.6.7 5 1.7 5 9.4-.3 5-3.4 11.5-7.7 12.6-8.3 1.3-.7 3-.3 7.3 1.7 13.1 6 18.1 5.4 19-2.5l.3-2.6 6.3-6.4c6.9-7 7.2-7.4 7.2-11.1s.5-5 3.4-8.3c2.8-3.2 2.8-3.1 4.2-10.8 1.3-6.8 3-5.3-20.4-18.5-6.9-4-7.1-4-8.2-3.7q-.8 0-1.2-.2c-.3-.5-.5-.5-2.5.4m2.3 2.7c-.2.4-1.8 1.9-3.5 3.3l-6.5 5.6-5.2 4.6a132 132 0 0 1-9.6 8.2l-5 4.6-7.7 7c-1.6 1.6-3.1 2.8-3.5 2.8s-.7.3-1 .7q-.4 1-.6 0-.9-1.8 2.5-4.3l7-5.8 9.1-7.4c2.3-1.8 5-4 5.8-4.8s3.2-2.6 5-4l7-5.8c6-5.3 7-6.1 6.2-4.7m54 6c-.6.3-4.9 2.3-9.5 4.7-10.6 5.3-10.5 5.2-11.9 13.5-.7 4.5-1 5.2-3.6 7.8-2.6 2.8-2.9 3.5-3.4 8.2-.6 5.1-.7 5.3-6.1 10.2-6.5 5.8-7.9 7.9-7.9 12q0 1.4-1.4 2.7c-1.8 1.8-2.5 4-1.7 5q.6.5 1 .2.2-.3-.2-.5-.4-.1-.2-.7 0-.8 1 0c1.2.8 1.8.8 5.2-.3 3.8-1 4.5-.9 7.6 2.2 2.3 2.2 6.2 4.7 7.5 4.7l1.3.6c.5.3 1.8.7 2.9 1l5.8 1.6c4.1 1.4 5.5 1.4 8-.2a22 22 0 0 1 4.2-1.7c3.7-1.1 4.5-1.7 3.8-2.9-1.1-2.1-.2-3 6.8-6.4 4.4-2.2 4.8-2.6 3.8-4.4-1-2.1 2-5 10-10 3.4-2 3.6-2.4 4.2-5.1.3-1.2 1-3.4 1.7-5s1.2-3.6 1.2-4.5l.1-1.5-4-.1c-6.3-.1-6.8-.2-7.4-.6q-.7-.4 1.7-.4c1.2 0 2.3.2 2.4.4q0 .4 2.1 0l2-.6-1.6-.3-2.2-.5-6.6-1.2c-2.6-1-3.4-1.3-3.6-1q-.4.4 1.6 2 2.1 1.6-1-.2a9 9 0 0 1-3.8-5.6q-.2-1.7-.8-2.8c-1.2-2.3-.8-3.6 1.8-6.4l2.4-2.5-1-1.3q-1.9-2.4.3-.8c2.8 2.2 1.6-.6-1.8-4l-3.3-3.7c-1.4-1.7-4-2.6-3.5-1.3q.5 1-.7 0c-1-.7-1.6-.7-3.2-.2m10 7.2q.1 1-1-.5-1.2-1.1.1-.3.8.4.9.8m-239 6.9q-.8.9-1.1 1.5-.2.8-.3 0t.9-1.6q1.8-1.5.4.1m54.6 1.7q-.2.3 0 .8 0 .4-1.2.3c-2.5-.3-9.2 2.8-27.3 12.8L105 280.6a32 32 0 0 1-8.4 4q-5.7.4-6.7 1.3-.7.5-.7.3-.1-.2-1 .6-1 1-1.3 1t-.2.3-.8 0q-.8 0-.6.1.2.3-.3.8c-1.2.8-1 5.4.3 5.4q.5 0 0-.5c-.8-.7-.6-1.7.5-2.1q1.3-.8.5.5c-.6 1.2.1 1.9 3.9 3.9s4.7 2.8 3.5 3.3c-1 .4-3.3 2.3-3.3 2.8l.4 1.6.5 1.1.6-1.2.6-1.2.3 1c.2.9.5 1 3.2 1.5 1.7.3 6.2 1.6 10 3 20.9 7.8 21.4 7.9 24.2 4 1.3-1.7 9.6-14.6 18-27.9 2.7-4.4 7.4-11.6 10.3-16 4.5-6.6 5.3-8.1 5-8.8q-.5-.9.3-.5c.5.2 1.4-1 1.4-1.9 0-1.6-5.9-5-7-4m2.3 4.2 2.3 2.3-1 1.2c-.6.6-2 2.4-3 3.9l-6.4 10-7.9 12.4c-11.5 18.9-16.4 25.8-18.2 25.8-1.5 0-13.2-3.8-20.5-6.6-5.5-2.2-6.3-2.4-9.3-2.4l-3.3-.1 1.2-2c2.5-3.4 1.4-5-4.6-7q-4.4-1.3-2.9-2.6.6-.8.4-1.1t.2 0c.2.1 1.4-.4 2.6-1.1a49 49 0 0 1 8.8-4.5c.9-.3 5.4-2.7 10-5.3a713 713 0 0 1 42.9-23c6.4-2.8 5.8-2.8 8.7 0m182.3 1q0 1 .6 1.7.8 1 .6 1.7c-.2.7.2.9.4.9q.4 0 .3-.9l-.3-1.8q-.1-.7-.8-1.8l-.8-.9zm-174 3c-1.4.2-2.2 1-1.5 1.4q.5.3-.3.3c-1.7 0-2.3.9-17 23.6-19.2 29.7-18.4 28.1-16.2 30.1 1.6 1.5 2.9 1.6 5.4.3 1.2-.7 3.3-1.5 4.6-1.9l4-1.4c3.3-1.4 5-1.3 7.2.2 13.1 8.9 13.3 8.8 14.4-3.9l1-11.4a803 803 0 0 0 2.4-26.8l.3-3.4-1.2-1.6q-1.2-1.5-.6-1.3l1.3.5q1.4.5-.6-2.4c-1.4-2.1-2-2.5-3.2-2.3m21 2c.4.8-.7 28-1.8 42.5l-2 33.2c-.2 4.5-.8 11.2-1.3 14.8-1.6 13.1-1.1 12.4-11.3 17l-10.4 3.8-19.6 6.8-23.8 7.6c-6.4 2.1-16.3 4.3-14.4 3.2.6-.3 2-.8 24-8.2a1748 1748 0 0 0 42.2-14.8c7.4-2.7 6.9-2.1 7.6-8.6l.8-6.4a861 861 0 0 0 6.8-83c.2-4 .5-7.4.7-7.7.5-.6 2.1-.7 2.5-.1m-19.4 3q1.2 1.5.8 1.8c-.5.3-1 5.2-1.6 15.6a559 559 0 0 1-2.6 29.8c-.4 4.4-.8 4.4-11.2-2-1.3-.7-2.8-1.4-3.3-1.4a88 88 0 0 0-14.8 5c-2.3 1.6-4 .4-2.8-2a1122 1122 0 0 1 30.3-46.4c2-3.3 2.6-3.4 5.2-.4m65.2 18.4q0 1.4.4 1.2.3-.3.4-1.2c.1-.9-.2-1-.4-1.2q-.3-.2-.4 1.2m2.3 8.3q-.2.6-.2-.9c0-1.5 0-1.4.2-.9zm-54 13.8q0 2-.3.5-.4-.9-.2-1.5.5-1.4.6 1m75.4 69.3q.8.3.2.3t-1.4-.3-.2-.3 1.4.3m21.8 7.6q0 .4.8.3c.4-.1 1.5.2 2.4.7s2 1 2.3 1q.7 0 .2.3c-.7.2-7-2-6.7-2.4.3-.5 1-.4 1 .1"/><path fill="#0b260a" d="M201.7 2.7a39 39 0 0 0-7.8 3c-1-.3-8 3.3-9.6 5-1.8 2-3.9 8.9-2.4 8a146 146 0 0 0-.3 11.9V36l-3.8 3.7c-4.7 4.5-5.2 4.8-15.4 8.3-13.4 4.6-15.3 5.8-18.8 11.9-1.8 3-2.1 4.8-1.6 7.5q.7 2.3-10 0c-2.7-.5-7-1.3-9.6-1.6s-4.8-.9-5-1c-.6-.5-1-3.6-.5-3.6.7 0 0-5.2-.9-6.6q-2-3.3-8-3-7 .3-12.8 0c-6.7-.3-9.7 4.1-7 10.3.4.8.8 3.3 1 5.7.2 2.3.5 4.2.8 4.3q.3.2.2.5c-.2.4.8 3.2 1.2 3.2v-.5q-.3-.5 0-.2.4.4.4 1t.5.6.3.3q-.2.5 1.2 2a5 5 0 0 1 1.7 3.5 32 32 0 0 1 .8 6.6l.1 3.6-2.1-.3-5.3-.9q-8.5-1.7-13 .6l-2.6 1.3-1-1.1-3.4-4.9q-9.4-13.9-19.9-2.8l-2.3 2.4H44c-15.5 0-28 3.8-31 9.3-1.9 3.8-.4 12.3 2 11.3q.6 0 .4.2c-.2.4 1.9 1.2 3 1.2 1.3 0 .9 1-.7 2-4.3 2.8-3.4 9 1.8 12.6a13 13 0 0 1 4 4.6c2.3 4.3 2.9 4.6 7.8 4.6 2.3 0 5-.4 6.2-.7 1.1-.3 2-.4 1.8-.2q-.1.4.6.2.9-.1.6.2-.2.4.5.2.5-.2.4 0c-.8 1.4 19.2 11 22.3 10.8q1.8-.1 1.4.1-.5.4.4.4t1.8 1q.7.9 1 .9t.4.3 1 1.3c.7.7.7 1 .4 3.3q-1.5 8.6 6.2 9.5c2.2.3 2.2.3 1.2 3q-2.5 6.3 4.2 13.7l4.4 5.5c2.5 3.4 4.2 4.7 12.1 8.7 8 4.2 8.4 4.4 9 6.3.7 2.5.5 4-.6 5.4s-1.5 4.5-.6 7.8c.2 1 .1 1.6-.4 2.7-1 1.9-1.8 5.2-3.2 14.1l-1.8 11a37 37 0 0 0-.5 6.3 8 8 0 0 1-.8 4.2c-.8 1.2-2.8 7.4-8.4 26a35 35 0 0 0-1.2 6.3l-.2 3.1-2.5 1.5c-7.4 4.4-7.9 11.6-1 15.1l2 1v2.8c.3 4.3 1.7 5.4 8.2 6.8 2.2.5 6.1 1.7 8.8 2.8a157 157 0 0 0 21.6 7q2.4.4 4.8 1.6c3.6 1.8 7.8 1.8 11.4-.2a42 42 0 0 1 8.7-3.2c.3 0 2.1 1 4 2 14.5 8.8 18.8 6.3 19.4-11.7 0-2.1.2-3.9.4-3.9s.3-.9.3-1.9l.6-7.1a125 125 0 0 0 1.4-16.2c.1 0 .4-2.7.6-5.9.4-9-.3-10.5-6-14.2-2.9-2-5.4-4.4-5-5 .2 0 3.3 2.2 7.2 5l6.9 5.1-.3 7.2a420 420 0 0 1-1.4 26.4 478 478 0 0 1-2.8 33.2l-1 9.2-.8 6.8a86 86 0 0 1-2.3 14c-1.4 1.4-27 10.3-74 26-7.3 2.5-10 7-6.5 10.8l1 1h218.7l1-1.2c1.3-1.5 1.5-4.9.5-6.8s-6.7-4.2-26.2-11c-19.2-6.6-51.5-18.3-52-18.9a714 714 0 0 1-6.8-68.5l-1.8-22.8-.3-3.9 1.9-1.5c2-1.7 2-1.7 2.4.2q.2 1.5-.2.6c-.7-1.5-.4 1.3 1.4 15.8 3.4 27 3.3 26.8 9.6 26.8 3.2 0 5-.9 14.8-7 8-5 6.5-4.8 14.6-1.7 5.7 2 7 2.4 10 2.6 3.3.2 3.4.2 5 1.7 2.5 2.4 5.1 3 9.2 2 1.8-.4 2.1-.3 6 2.6a41 41 0 0 0 21.2 7.7l4.5.2 5.5-2.2c6.5-2.7 8-3.8 8.4-6.8l.3-2 3.5-1.7c5.4-2.7 6.4-3.8 7-7.5.2-1.5 3.3-4.2 7.9-6.9a11 11 0 0 0 5.5-7l2-6.1q2.2-6 1-10c-1.2-3.2-2.1-3.5-9.5-3.6-8-.1-10.2-1.2-11-5.2-.4-1.4-.3-1.7 1-3.2 3.9-4.6 3.3-8-2.4-13.7-4.2-4.4-4-4-1.2-6.2 8.4-6.4 9.6-12.3 4-19.8-.8-1-2-2.7-2.7-4l-1.3-2.2 2.2-2.4c4.5-4.8 4.2-9-.7-14.4a17 17 0 0 1-4.4-7c-2.6-6.8-5.6-8.3-12-6-4.1 1.5-4.2 1.5-4.2 1.1 0-.2 1.3-2.4 3-5s3.1-5.2 3.4-6q.5-1.2 2.6-2.2c6.3-3.2 8.2-5.4 9.4-10.9 1.3-6 1.7-6.2 7.6-6.5 8.7-.5 10.4-3 10.8-15.9.3-8.7.7-11.5 2.6-18.6l1.8-8.4c1.3-7.6 1.9-9.2 5.7-14.7 3.6-5.1 2.2-12.3-2.2-12.3q-.6-.1-2.5-1a134 134 0 0 0-31.6-5.4c-6.3-.6-6.3-.5-7.7-3-2.6-4.2-4.2-5-12.4-6-6.2-.7-8.5-1.1-12.5-2.2a12 12 0 0 0-3.5-.6q-.5 0-.5-.3t-1-.2h-.9c.1 0-2.3-1.4-5.5-3-6.6-3.5-6.6-3.5-6.6-8.7 0-7-1.6-9.2-6.4-9.2-2.5 0-5 .7-4.6 1.2q.1.3-.3.2c-.8-.3-6.2 5-5.7 5.5h-.7c-1-.2-1-.4-1.2-3.4-.4-6-2.1-8.4-7.1-10.1a28 28 0 0 1-8.8-4.8 17 17 0 0 0-6.4-3.6c-2.7-.7-2.8-.8-4.4-4.8-2.9-7.3-5.7-9-12.1-7.1-3 .8-3.1.7-4.3-4.5q-.9-3.8-1.3-3.5-.3.1-.2-.2c.4-.7-.1-2.5-.6-2.2q-.4.1-.1-.3c.3-.5-1.2-2.4-2-2.4q-.6.1-.6.8t.4.6.2-.6c-.4-.6.4-.5.9.1q.3.5.4 1.7c.1 1.2.3 1.3.5 1.4q.6.3 0 .6c-.7.4-.1 6.3.9 8.6q1.5 3.4 2.8 2.4.6-.3 1.4-.1t1.5-.6c.5-.6 1.1-.7 2.8-.7q1.9 0 2-.3-.2-.2.4 0 .5.2.6.6.1.5.4-.1t.4 0 .6.3c.6-.3.8.1 1.2 2.1 1 4.8 3 9.2 4.5 9.2.5 0 2 .4 3.3 1 2.6 1.1 3 1.2 2.6.6q-.2-.3.4-.2.5.3.4.6-.1.4.7.4 1 0 1.3 1 .2 1 .5.8.4-.2 1 .2t0 .4.5 1 1.4.8.4.2.6.4 1 .6.7.5l1.8.4c.8.3 2 .5 2.7.4q1.1-.1 1 .1-.2.4.4.4.8 0 .4.3c-.4.3.2.6.6 1 .6.4.8 1 .8 2.7s-.6 4.3-.8 3.6l-.6-2.7q-.3-2.4-.4 3.8V49h4q6.3-.2 6.2-3.4 0-.7.5-.6c.7.3 1.3-.9 1.5-2.5q-.1-.9.4-.1.4.6.6.1.4-.3 1-.2l1.5-.1q.7-.3 1.1-.2c.5.1 1.8.3 3 .3q.7 0 .6.6-.3.5.5.2 1-.4.5.5-.4.6-.1 1a6 6 0 0 1 .1 2.3l-.2 4c0 2.1-.8 3.3-1.4 2.3q-.4-.8-.4.4c0 1.9-1.7 3.6-8.6 8.7-11.4 8.3-11.4 8.3-16.6 7.4-4.4-.8-14.6-1-20.6-.5-8.9.8-7 3.3-23.7-30.3-13.2-26.6-14-28.3-12.6-29.8q.9-.8 0-.7c-1.2 0-.8-1.7.4-2.5 1.3-.7 6.2-2.5 7.9-2.9 1.5-.3 3.4-1.1 3.4-1.4l.7-.3 3.1-.3 3.3-.3q.8 0 .9-.3c.1-.3-2-.3-4.5-.3h-4.5zm-8.6 5.9q.8.2.9.9c0 .3.6 1.3 1.3 2.1s1.8 2.6 2.3 3.9a1731 1731 0 0 0 22 45.1c6.3 12.2 6.2 10.2.6 21.3-6.1 12.3-5.8 12.1-17.4 9.7l-11-2.2c-26.7-5.1-25.7-4.4-19.2-15.2C187.4 49.7 187.8 49 187 47.4q-.4-1.1-1 .5l-5 8.2-9.3 15.1c-7.5 12.5-7.8 12.6-15 8l-4.4-2.4c-.8 0 1.3 1.6 4.8 3.7 6 3.6 6.2 4.3 3.8 13.6l-5 19-4 14.1c-1.2 1.9-2.9 2.5-37 13.8-17.7 5.9-33.2 11.1-34.5 11.7-2.8 1.1-5 1-5.5-.5q-.3-1-.6-.1c-.3.9-1 1-1 .1q0-.5-.4-.6c-1 0-.6-3 .7-5.1l1.4-2.3-1.8-1.5q-2.7-2.3-2-.9.2.6-.4.6c-.8 0-2-2-2.3-3.8-.2-1.1-.3-1.2-1.8-1.1l-3.3.1c-1.7 0-3-.5-9.8-4.3l-5.7-3.2c-9.4-5.2-8.7-5-12.7-3.7s-5.5 1-6.7-.6q-1.6-2.4-.8 0c1 2.9-1 .8-2.3-2.3-.7-1.6-.7-1.9-.2-2q.4-.1-1.8-1.9-5.7-4.3-1.9-5 2.6-.3-.3-.8c-1.4-.2-1.5-.2-2 1q-.6 1.3-.5.4.3-.9-.2-.6-.3.2-.2-.4c.4-.8 1.9-1.7 3.5-2s1.7-.3.7-2c-1.2-1.9.1-4.2 3.1-5.8q2.5-1.2-3.3-1-4 .4-4.4-.2-.5-.5-.9-.3c-.4.2.1.6.5.9q.8.5.5.8-.5.4-1.6-.6-1-.8-1-.5c0 .3.3.5.1.5-.5 0-1.1-2-1.3-4.5q-.1-2.8.3-2.7t.3-1c-.1-1.1 1.5-3 2.3-2.7q.6.2.6-.6-.1-.9.4-.1.4.6 1 0 .4-.3.8-.1.2.2.6-.3t1-.7c3.4-.5 3.9-.7 4.4-1l1.4-.1q.9 0 1.3-.4.3-.3.3.1t.4.3l2.5-.4 2.5-.2L36 89q1.5-.5 1.8-.4t1-.3q.9-.4.5 0-.4.6.9.2c1.3-.4 5-.4 6.8 0q2.1.3 1.9-1.8 0-.7.3-.7.4 0 .2-.6-.2-.8 1-1.6c1-1 1.8-1.3 3.8-1.5q.4 0 .6-.5t2.8-.3l4.1.3q1.8 0 1.5.6-.2.6.3.2t.3.3.3.4.3-.6q-.2-.6.1-.2c.5.5.6 1.5 0 1.3l.6.5q.8.8.7 1.2-.2.5.4.7.5.2.4.5-.1.4.8 1.2 1 1 .4.8-.7-.4.6 1.5 1 1.6 1.5 1.8.4 0 .4.6t1.2 1c1.2.5 1.2.7 1.2 1q0 .1-.4 0-.9-.5.2.8 1.2.9 1.4-.3 0-.5-.4.1-.4.8-.4-.1 0-.7 1-.7t.8-.4q-.3-.3-.7-.1t-.1-.2q.2-.5.6-.3t.5-.3q.3-.6 1.7-.4 1.5 0 2-.2 1-.7 7.8.5l2.6.4c2.2.3 3.5.5 6.3 1.2 3.2.8 4.3.8 4.3 0q0-.5-.4-.6c-.6 0-.8-2-1-9.2-.1-5.4-.3-7-.8-7.8q-.8-1.7.5-.5c1.2 1.1.8-.2-.5-1.6Q95 71.5 94.6 69q-.7-2.8-1-.2l-.2 1.3-.7-1.5c-.4-.9-.7-2.3-.7-3.2s-.2-2.4-.4-3.3c-.7-2.4-1-6.6-.4-5.7q.5.8.2 1.7-.2 1 .4 1 .5 0 .7.5.3.3 0-1.2c-.2-1.5-.1-1.7.9-2q2-1-.4-.8c-2.3.4-2.2-.7 0-1.8q1.2-.6 1.5-.5.5.1 1.7-.1 1.3-.4 1.4-.2t1.3.4l3.6.2c1.3.1 2.4 0 2.5-.2q.3-.4.8-.1.5 0 .8-.2.2-.2 1.4 0 1.4.1 1-.4-.5-.7.3-.1.5.5.8.3t.7.4 1 .3q.5 0 .6.3 0 .4.6.4t.6.4q0 .5.4.2t.4.2q0 .6.9.4t.3.4q-.7.4 0 .4.9-.1 0 .4-.7.5-.1.7.5 0 .5.6c0 .6-.1.3-.3.2s-.3.4-.3 1.1q0 1.4.4 1.1.3-.2-.1.4-.7.6.2 1 .6.5.3.5-.4 0-.9-.5t-1 0q-1.4 1.1 0 2 1 .7.6-.2-.2-.9.2-.1.4.6 0 1-.5.7 0 .6t.4.6c-.5 1 .8 1.8 2.8 1.7 1-.1 2.9 0 4.1.3a51 51 0 0 0 10 1.4q.1.3 1.1.2a3 3 0 0 1 1.8.6c.6.4 1.9.6 5.1.7 3.4.1 4.4.3 4.6.8q.2.6-.4.4-.5-.2-.6.1-.1.7 1.5.1.8-.1.7-.5t.7-.1l.9.2-1-.9-.9-.8 1.7-.2c2-.4 2-.6.2-2q-1.3-1-1.4-1.7c-.1-.7-.3 0-.6.9l-.5 1.6-.7-1.6a6 6 0 0 1 0-5.2l.3-1.1.5-1q.6-.6.2-1-.7-1 .8-1.1.7 0 1.4-.6t.2-.4q-.7.5 0-.3.5-.6.7-.5c.3.2 1.2-.7 1-1q0-.3.6-.3l6-2.1 9-3.2q1.3-.5 1.3-.8t.7-.1.6-.2.4-.4q2.7-.1 3.5-.9.5-.4.6-.1.2.3.8-.6t.8-.6c0 .4 1.2-1.1 1.2-1.6q0-.3-.5 0t-.1-.3.7 0c.5.3 3.1-1.6 3.1-2.3l.7-1q.6-.7.2-.6-.5.3 0-.7l1.1-1.2q.7-.3.1.3-.5.4-.5.8c0 .4.3 0 .6-.2s.6-.8.6-1 .3-.5.6-.6q.5-.2.6.2c0 .7 1.3 1.9 2 1.9s.7-.7.5-10.2a43 43 0 0 1 .4-11.9c-.8-1-.7-4.3 0-4.9q.7-.5.7-1.2 0-.5.4-.4.6.2 1-.4.7-.7 1-.4.4.1.4-.2c0-.5 3-2 3.2-1.6q.2.3 1.1.6m-8.9 31.6q-1 .8 0 .6.8 0 1.2.7.7.9.6 0l.2-1.3c.4-.8-.9-.8-2 0m95.5 4.4q1 .7 1.1 1.3 0 .6.3.2c.3-.8-.7-2.1-1.6-2q-1.2-.1.2.5m7.3 12.1c-.2.5 1 1.2 2.1 1.1q.8 0 .9.2t1.2.8c1.2.5 1.1.6 1 .8q-.1.4.3.6.3.3.2-.1-.3-.4.5-.4.7 0 .8.4t.4.1q.4-.3.4.2t.4.2q.5-.3.4.2t.4.2c.6-.4.5.3-.3 1.1q-.6.8-.2.5.8-.4 0 .6-.5.7-1 .8t-.6 1.5c-.4 3.2-7.2 16-11 20.9-4 5-5 6.6-5.7 9.9-.8 3.5-1.7 4.5-6.6 6.9l-4.4 2.2-6.9-.1-7-.1-2.7 1.2c-5.6 2.4-14.6 3-17.5 1a133 133 0 0 1-12.6-11c-2.4-2.6-2.2-3.2 3-13.6 4.3-8.7 5.3-10.4 6.8-11.3 1.8-.9 22.7-.9 27.5 0 5.6 1.2 5.4 1.3 13.2-4.5a56 56 0 0 1 13.1-8.8q.1-.4 1.9-1c2.4-.9 2.3-.9 2-.5m15.2 6.9a59 59 0 0 0 11.8 2.8c1.1.3 6.6 1 8.2 1 .6 0 2.6 2.3 2.6 3 0 2.7 2.6 4.8 6 4.8 8.2.1 11.9.4 15.4 1.4 1.1.3 3.2.6 4.6.8l3.6.4c2.5.5 10.2 1.4 10.6 1.2q.4 0 .4 1.1c0 1.4-1.3 2-2.4 1.1q-.5-.4-1.4 0-1.4.3.6.6c2.8.5 3.8 1.8 1.4 1.8-.6 0-5.3 2-10.5 4.6a216 216 0 0 1-35.5 14.4c-10.1 3.2-10.2 3.2-14.6-4-5.2-8.5-8.6-13.7-9.6-14.6-3.1-3-3-4 3.2-16.6q.9-1.8.6-2.2c-.5-.3.3-2.4.9-2.4q.3 0 .1-.4c-.2-.4 3.3.7 4 1.2M94.4 71.4q0 .6.3 1.3.3 1-.4-.1-1.2-1.7-.3-1.8.3 0 .4.6m228.4-.4c0 .5 2.6 4.2 3 4.2q.3 0-.1-.3-.5-.1-.5-1c0-.8-.2-.8-.4-.9s-.4-.6-.4-1-.4-.8-.8-1-.8 0-.8 0m48.5 12.3c.9.9.8 2.8-.2 3.6l-.8.9.2-1c.7-2.5-1.7-4.7-3.2-3.1q-.8.9-.1.7c3-.6 3.4 1 1.1 3.8a26 26 0 0 0-6.5 15c-.6 3.8-1.1 6-3.2 13.8-1 3.7-1.1 4.8-1.3 12.8-.2 11.6 0 11.1-2.6 12.8-2.2 1.4-5.3 2-8.2 1.2-3.6-.8-8.1 4.7-8.1 10 0 2.8-2.8 5.8-7.2 7.6q-3.4 1.4-3.8 3.4c-.1.6-1.3 2.7-2.6 4.5-5 7.3-6 10.4-4.2 14.1q2.8 6-6.8 1.5c-4.5-2-5.2-2.6-6-4.8l-1.2-3.1a48 48 0 0 0-9.4-10c-4.4-3.4-5-4.7-5.5-11.9l-.2-3.8 1.4-2c.8-1 2-3.2 2.8-4.7 1.8-3.4 2.4-4 7-7.9 11.4-9.6 15-18 10-24-3.3-4-2.6-4.9 6.5-7.7 17.6-5.4 46-18 46-20.3 0-2 4.6-3 6.1-1.4M50.6 84q-1 1-.7 1.4l.7-.2q.1-.4 0-.4-.2 0 .6-1c.8-1 .9-1 .7-1zm240.2.8a6 6 0 0 1 1.7 2.1c.4 1 2 3.4 3.3 5.5l5.9 9.6c1.9 3.2 4.7 7.6 6.3 9.8 3.1 4.4 3.4 5 3.1 7.8q-.5 6.1-12 16c-4.5 3.7-4.4 3.5-6.2 7.1-1.8 3.8-3.2 4.6-5.8 3.6-7.4-2.8-39-17.6-39.8-18.6-1.1-1.4-.6-2.6 2.3-5.5 3.6-3.6 4-4.6 2.6-8q-3.4-8.3 6.8-7.2c7 .7 8.3.5 13.6-1.6 5.6-2.3 6-2.8 7.4-7.8 1.2-4.5 2-5.8 5-9.3 3.4-3.7 4.3-4.3 5.8-3.5M180 88.2l14.2 3.2c21 4.7 20.9 4.6 25.2 8.6 4.3 3.9 10.6 9.3 11.8 10.1.8.6 2 .7 7.4.7 7.2 0 8.1.3 10 3.2 2.2 3.1 2.3 3-8.6 13.4a35 35 0 0 0-7.6 10c-2 3.5-6.8 10.6-10.4 15.8l-10.4 15c-6.8 10-6.7 9.9-12.5 4.3-26.9-25.7-43.4-42.2-43.9-44a246 246 0 0 1 10.3-41c1.7-2 3.6-1.8 14.5.7m-164.4 6q-1 1-.4 1c.6 0 1.8-1.5 1.5-1.8q-.2 0-1.1.8m8.2 15.4c-.2.4.6 2 1.1 2s.3-1-.3-1.7q-.5-.7-.8-.3M254.6 134l28.2 13.3c4.1 1.8 4.8 2.8 5.8 8.8.8 5.2.5 6-4 8.2-5.5 2.7-20 10.6-24 13.1-6 3.6-7.4 3.3-7.4-1.5 0-4.5-2-6.8-18.3-21.3-6.8-6-6.8-5.5 0-15.8 7.4-11.3 6.6-11 19.7-4.8m-104.5-.9c1.1 1.3 1 2-.3 9.6l-2.6 14.7a677 677 0 0 1-4.8 25.2l-4.2 20.5c-3 14.5-2.5 14.2-12.3 7.8l-8.5-5.6c-3.6-2.3-4.2-3.1-4.6-7.1-.9-7.2-1.6-8.3-7.5-10.7-6-2.5-12.5-6.6-14.1-8.9-.8-1-2.5-3.2-4-4.7q-6.5-7.5-5.2-9.4.8-.9-.3 0-1 .7-.6 2v1.1c-.5 0-1.1-2-1.3-4.2V162q.3.8 4.3-1c1.8-.8 1.8-1 .1-3.2-2.2-3-1.3-4.2 4.4-6l18.8-6.4a1116 1116 0 0 1 37.4-12.1q4.2-1.5 5.3-.1m29.4 24a586 586 0 0 1 22.8 23.6q1 3.1-5 6.5l-6.1 3.9-7 4.2-9.8 5.6a241 241 0 0 1-33.5 17.1c-2.3 0-2.8-2-1.7-6.9 2.9-13.2 7.3-36.2 12.2-64.1 1.6-9 2-11 2.9-11.9 1.6-1.8 1.5-1.9 25.2 22m-107.1-14q.4.7 0 .8c-.3 0-1.2-.9-1.2-1.3 0-.6.8-.3 1.2.5m157.8 11.2 5.6 5c15 13.4 14.2 12.4 14.2 20.5 0 7 .2 7.6 6 20.7 6.1 13.7 6 14.1-4.2 9.2l-8.4-4a110 110 0 0 1-14.2-7.7A111 111 0 0 0 219 192l-5.2-3.1c-8-4.5-8.9-7-4.7-12.8l8.4-11.7c9-12.6 9.5-13 12.7-10m61.4 12.3c.6.3 2.3 2 4 3.5l4.9 4.4a10 10 0 0 1 4 6.2c.6 3 2 4.4 6.4 5.8q8 2.5 2.4 5.7l-5.3 3.1-35.4 20.5c-4.2 2.3-5.3 1.7-7.8-3.6-11.1-24.2-11.5-25.1-10.2-27 1.4-2 10.7-7.5 25.4-15 8.5-4.4 9.8-4.8 11.6-3.6m42.6 15q.4.2 1.4.3 1.7 0 3 4.4c.8 2.7 5.3 8.4 6.6 8.4.8 0 1.6 1.8 1.3 3l-.3 1-1-1.2q-.7-1.1-1.3-1.2-.2 0 .4 1c1.3 1.3.7 2.4-3 6q-4.3 4.2-2.3 4.4c.7 0 2.8 2.6 5.4 6.8l3.2 5c1 1.2 1.1 2.8.2 2q-.5-.5-.6-1-.1-.7-1.2-1.6c-1.1-.9-1.2-1.4-1.2-1.6s-.4-.8-.8-1.2l-.8-1-.7-1.5-2-3q-.9-2-1.2-1.6a36 36 0 0 0 5.3 9.3c2.8 4 3 4.6 1.4 6.7a28 28 0 0 1-11.8 7.7l-11 5.2c-8.8 4.2-9.8 4.5-12 3.1a536 536 0 0 0-29-16c-10.3-4.8-10.2-5.1 5.4-13.9 26.6-15 35.2-20.5 35.8-23a5 5 0 0 1 1-1.9q.8-.8-.2-.7c-.5 0-.5-.2.4-1.5 1.5-2.2 8-3.9 9.6-2.5m-1.4 1.2q0 .5.8.3 1.8-.4 3 2.8a24 24 0 0 0 3.6 7c.6.3 0-1.4-.7-2.3q-.3-.4-.3-1 0-1-.5-1c-.5 0-.7-1.2-.8-2q-.6-4-3.6-4.2-1.4 0-1.5.4m-120.4 12.7c9.6 5.9 26.6 15.6 32.7 18.6 4.3 2.2 5 1.3-6.7 8.7-16.2 10.2-17.4 10.9-17.5 9.9 0-.5-.3-6-.4-12.3-.5-15-.2-14.4-10-21.8-5.6-4-6.6-4.6-9.3-4.6q-3.7.2.5-2c2.7-1.6 2.2-1.7 10.7 3.5m128.4-1.8 1.3 1.3q1.7 1.8.5.1c-.5-.8-1.8-1.8-1.8-1.4m-137 2.3q-.1.3.3.5l.8.3 2.6 2.4 3.6 3.2q1.2.9 1.3 1.5c.1.6.2.5.6.5s.6.3.7.7l.5 1.4c.4 1-.5.9-1.6-.3a8 8 0 0 0-2.7-1.8l2.2 2.4 2.5 2.3.3 15c.4 18.7.2 18.1 4.5 14 1.6-1.6 3.3-3 3.7-3s.9-.5.9-.7q.1-.4 1-.8t.8-.9q-.3-.3 0-.2c.6.3 2.3-.4 2-1v-.3c.7.1 2.2-.5 2-.8q0-.2.3-.3c.9 0 4.3-1.8 4.3-2.2q0-.3.3-.2.4.1 1-.7 1-1.1 2.5-1.6 2.7-1 1.3-1.5-.3-.2.5-.2a6 6 0 0 0 2.6-1l2-1.1c.6 0 4.6-2.6 5.1-3.4a2 2 0 0 1 1.1-.7l1.5-.6c3-1.7 13 1.7 17.5 5.8l1 1-1.8 1.3c-1 .6-3.3 2.4-5.1 3.8l-5.5 4.3-6 4.6-6.6 4.9c-1.6 1-5 3.7-7.6 5.8l-10 7.5c-8.9 6.6-8.2 5-7 16.1.9 9.3 2.2 24.7 3 36.8A717 717 0 0 0 229 357c.6 7.4 1.3 9.4 3.1 9.4h.9l-.9-.4c-2.4-1-.9-1.4 2.3-.6 4 1 9 2.7 14 4.7l5.2 1.9 6.8 2.4 4.6 1.7 3.4 1a52 52 0 0 1 7.3 2.7c5 2.2 5.1 2.2 23.4 8.5 7 2.4 9.4 3.8 6.1 3.6q-1.5 0-1.6-.3-.2-.4-1.7-.8l-3-1-2.5-.9q-1-.1-1.2-.5-.3-.4-1.5-.6-1.7-.3-2.6-.8c-1.4-.7-3.5-1.1-3.5-.7 0 .2 1 .7 2.1 1l3.7 1.2 9.2 3.5 3.6 1.5 1.6.7-1.6.1a77 77 0 0 1-13.4-1.4c-4-.7-14.2-.7-33.6 0-7 .1-40.8.4-75.2.5-60.6.2-74.1.5-85 1.7q-4 .3-.6-1.3l2.6-1.1 1.2-.7-1.9.2c-2.8.2-2.4-1.2.7-2.2l2.1-.9q.5-.4.5-.1t.6-.2 1-.2 1.4-.5q1.1-.6 1.9-.8l3.6-1.1c1.6-.5 5.7-2 9.1-3s6.3-2.3 6.5-2.5l.6-.1q.4 0 .6-.3.2-.4 1.1-.5t1-.2l.6-.2a59 59 0 0 0 13.2-4.6q.3-.2 1-.3c.7 0 3.4-.9 6.4-1.9 5.9-2 6.1-2 9-3.3 2.2-1 6-2.5 6.8-2.7 6.7-1.7 7.3-2 7.4-3.7a197 197 0 0 1 2-15l1.2-12.4c.1-1.5.4-3.1.6-3.6q.7-1.6 1-10.9a65 65 0 0 1 1.2-12.2c.2-.3.3-2.4.4-4.7.3-6.4.6-11 .8-11.3.1-.2.3-4.8.4-10.3.3-16 .5-17.8 2-19.5 1.9-2 3.1-.9-25.2-22.3-24-18-22.4-16.3-17.7-19.8 6-4.3 8.5-4.6 12.7-1.6q1.5 1.2 1.6.3-.1-.4-1.6-1c-2-.9-2.5-1.9-.7-1.5a30 30 0 0 1 8 3.7l1.5.8q1 .7 1.2.5t.3.1c.2.3 1.5 1.1 2.9 2l2.8 1.8 1 .2q1 0 .8.3-.3.4.5.6c.8.2.8.4.9.5l3 2.1 5.2 3.6c1.3 1 3.2 2 4.2 2.6a9 9 0 0 1 2.4 1.5c2 2.3 2 1.8 2-15.7 0-17.4.1-18.1.5-18.8q.3-.4 0-1 0-.6.6-1.1.8-.8.3 0-.3.5.1.2t.3-.6c-.3-.4 0-.6 1.9-1q1.2-.2 1.1-1.1 0-.8.3-.4.1.5.9-.2.7-.7.6-.9c-.2-.3 0-.3 3.6-.8l3-.3zm-91.6 1.8c.5 1.5.2 3.7-.4 2.8q-.5-.8-.6-2 .1-2.3 1-.8m78.7 2c-2.8 3-2.9 3.5-2.9 19.4 0 7.4-.1 13.6-.3 13.8s-2.1-1-4.3-2.3l-6.4-3.9a164 164 0 0 1-16.6-10.5c0-.3 2.3-1.8 5.1-3.3l11.7-6.6 15.5-8.8zm2 4.9q-.5.1-.4 3.2v3.1l.3-2.8c0-1.5.3-3 .5-3.3q.7-.7-.4-.2m-81 .8c.1.2 1 .6 1.7 1 1.7.6 19.5 12.5 20.5 13.6q2.8 3-4.7 5.5c-6.5 2.1-7.5 1.6-9.6-4.7q-1.2-3.6-6.2-9.2c-2.2-2.4-3.5-5.2-3-6.1q.5-.7 1.2 0m-.6 4.5q1.3 2.5-.5.8a10 10 0 0 1-1.9-4.4q0-.6.8.7.6 1.4 1.6 2.9m2 4.3c2 1 4 5 5 9.4 1.2 6 2 6.7 5.9 5.9 2.4-.6 5-.6 5.9-.1q.6.3.8 0c.5-.8 2.3.1 6.8 3.7l8.4 6.4q0 .3.6.3t.7.6.9.6c.3 0 1.7 1.1 3.2 2.5l3.6 3.3c1.5 1.4 1 2.8-.7 2l-1.2-.7 1 1.3c1.1 1.6 1.2 1.5-5.2 4.4-7.3 3.3-15.7 7.8-39.1 21-12.5 7-14.6 8-15.2 6.2-.3-1-1-1-1-.1q0 .7-.4.2c-.6-.6-1-3.1-.6-4l3.1-10.8c.2-.3.7-1.6 1.1-3 3.8-12.5 4.7-14.3 7.8-14.5 3-.3 3.3-.7 1.2-2.8-1.6-1.6-1.8-1.7-1.8-.8 0 1.2-.8.6-1.2-1-.4-1.1-.3-2 .2-4.5.3-1.7.6-3.7.6-4.6s.3-2.8.6-4.3c.4-1.5.8-4.1 1-5.7s.6-3.4.8-4l.6-2.5c.9-5.7 2.3-6.6 6.6-4.4m-3.4.7c-.7.5-1.3 1.9-1 2.5q0 .4.6-.8.3-1.5 1.6-1.6 1.5-.4.2-.3-1 0-1.4.2m82.8 6.3c0 3.3 0 4.6.1 2.9zM279 228q.3.3 1.2.2c1-.3 1.3-.2 8.2 3.7 23.5 13.2 21.7 11.7 20.4 18.5-1.4 7.7-1.4 7.6-4.2 10.8s-3.4 4.6-3.4 8.3-.3 4.2-7.2 11.1l-6.3 6.4-.3 2.6c-.9 7.9-5.9 8.5-19 2.5-4.3-2-6-2.4-7.3-1.7-1.1.6-7.7 5-12.6 8.3-7.7 5.2-8.7 5.3-9.4.3-.4-3.6-1-5.6-1-3.6 0 .7 0 2.2.3 3.4.5 2.5 0 4.1-.8 2.3l-.4-2.1-.6-3.5c-1-4.1-1-7.6-.3-7.4q.7.2 1 1.1a24 24 0 0 0-.4-6.7q-.2-1.3-.9-.3c-1 .9-1.7-1.8-1.5-5.6q.4-5.9 1.4 1l.5 3.8-.3-4c0-2.2-.3-5-.5-6.2-.5-3-.5-5.4 0-6q.5-.4.2-.4c-1 0-1.4 1.7-1.2 3.8.2 1.2.2 2.9 0 3.7l-.3 1.5-.4-2c-.6-3.3-.6-8 .1-8.8q.7-1 0-.4t0-.3q.4-.6.8-.5.3.2.7-.3.6-.7 1-.9 1.1-.2.3-.6-.7-.5 0-.4c1.3.2 2 0 3-1l2.6-2.1 3.1-2.8q1.6-1.6 2-1.7a63 63 0 0 0 9.3-7.4l.7-.5 4.8-4c5.3-4.2 7.1-5.7 11-9.4 2.1-2.1 5.2-3.5 5.7-2.7m57 9.5q1.3.9.7 0c-.6-1.4 2.1-.5 3.5 1.2l3.3 3.7c3.4 3.4 4.6 6.2 1.8 4q-2.2-1.6-.3.8l1 1.3-2.4 2.5c-2.6 2.8-3 4-1.8 6.4q.6 1.1.8 2.8a9 9 0 0 0 3.8 5.6q3.1 1.9 1 .1-2-1.5-1.6-2c.2-.2 1 0 3.6 1.1l1.2.4 7.6 1.3 1.6.3-2 .5q-2 .6-2.1.1c-.1-.2-1.2-.4-2.4-.4q-2.4 0-1.7.4c.6.4 1.1.5 7.4.6h4v1.6c-.1.9-.7 2.9-1.3 4.5s-1.4 3.8-1.7 5c-.6 2.7-.8 3-4.2 5.1-8 5-11 7.9-10 10 1 1.8.6 2.2-3.8 4.4-7 3.4-8 4.3-6.8 6.4.7 1.2 0 1.8-3.8 2.9a22 22 0 0 0-4.2 1.7c-2.5 1.6-3.9 1.6-8 .2l-5.8-1.7c-1.1-.3-2.4-.6-2.9-1s-1-.5-1.3-.5c-1.3 0-5.2-2.5-7.5-4.7-3.1-3-3.8-3.3-7.6-2.2-3.4 1-4 1-5.2.3q-.9-.7-1 0-.2.5.2.7t.2.5q-.4.2-1-.3c-.8-.9 0-3.1 1.7-5q1.4-1.2 1.4-2.6c0-4.1 1.4-6.2 7.9-12 5.4-5 5.5-5 6.1-10.2.5-4.7.8-5.4 3.4-8.2 2.5-2.6 2.9-3.3 3.6-7.8 1.4-8.3 1.3-8.1 11.9-13.5s11-5.5 12.7-4.3m5.8 6.4q1.1 1.4 1 .5 0-.4-.9-.8-1.3-.8-.1.3m-238.5 7.3q-.8.8-.9 1.5 0 .9.3.1l1-1.5q1.4-1.7-.4 0m57.9 1.9c.6.3 4 3.6 4 3.8 0 1-.9 2.1-1.4 2q-.8-.5-.3.4c.3.7-.5 2.2-5 8.8l-10.4 16a810 810 0 0 1-18 28c-2.7 3.8-3.2 3.7-24.1-4a77 77 0 0 0-10-3.1c-2.7-.4-3-.6-3.2-1.5l-.3-1-.6 1.2-.6 1.2-.5-1.1-.4-1.6c0-.5 2.3-2.4 3.3-2.8q2-.6-3.5-3.3c-3.8-2-4.5-2.7-3.9-4q.7-1.2-.5-.4c-1 .4-1.3 1.4-.5 2.1q.5.5 0 .5c-1.2 0-1.5-4.6-.3-5.4q.5-.5.3-.8t.6 0 .8 0 .2-.4 1.3-1q.9-.8 1-.6t.7-.3q1-.9 6.7-1.3c1.2-.1 3.6-1.3 8.4-4l11.8-6.6 13-7c18-10 24.8-13.2 27.3-13q1.5.3 1.1-.2c-.3-1 1.5-1.4 3-.6m183.2 6.5.3 1.8q.2.8-.3.9t-.4-.9q0-1.1-.6-1.7-.5-.7-.6-1.8v-1l.8 1q.7 1 .8 1.7M172 263.4q2 3 .6 2.4l-1.3-.5q-.6-.2.6 1.3l1.2 1.6-.3 3.4-.8 9a803 803 0 0 1-2.6 29.2c-1.1 12.7-1.3 12.8-14.4 3.9-2.3-1.5-4-1.6-7.1-.2l-4.1 1.4-4.6 1.9c-2.5 1.3-3.8 1.2-5.4-.3-2.2-2-3-.4 16.2-30.1 14.7-22.7 15.3-23.6 17-23.6q.9 0 .3-.3-.9-1 1.5-1.4c1.2-.2 1.8.2 3.2 2.3m64.4 21.2q0 .8-.4 1.2-.3.2-.4-1.2c-.1-1.4.2-1.3.4-1.2q.3.3.4 1.2m1.3 7.4q0 1.6.2.9v-1.8q-.2-.6-.2.9m-54.3 13.7q-.1.6.2 1.5.4 1.6.4-.5 0-2.4-.6-1m74.8 70.3q.7.3 1.4.3t-.2-.3q-.7-.3-1.4-.3t.2.3m22 7.5c-.2.5 6 2.6 6.7 2.4q.5-.2-.2-.3c-.3 0-1.4-.4-2.3-1s-2-.8-2.4-.7-.8 0-.8-.3c0-.5-.7-.6-1 0"/><path fill="#95dd48" d="M206.8 6.6c-8.5 2.8-8 2.3-5.7 7.6A1785 1785 0 0 0 225.4 63c2.8 4.9 2.7 4.8 9.1 4.3 7.3-.7 15.4-.6 19.5.1 5.6 1 6.8.9 9.6-1.1A242 242 0 0 0 278 55.6l1.6-1.4.1-4.5.1-4.6-1.4.3c-1.6.3-2.7 1.2-4.8 4s-3.5 3.3-7.8 2.7c-4.7-.7-6-1.4-5.7-3 1.4-8 .9-9.7-3.4-11a22 22 0 0 1-8.7-4.7c-2.2-2-4-2.9-7.6-4-2.9-.8-3.6-1.6-5.2-6-2.3-6.2-2.6-6.5-7-4.8-6.1 2.3-8.3.2-10.3-9.7l-1-4.3h-1.7c-1.3-.1-3.8.5-8.4 2m7.9.3c.2.3.5 1.6.6 3 .7 7.5 5.3 12.4 10 10.4 4.4-2 5.7-1.6 6.4 2.4.2.7.9 2.6 1.7 4.2 1.4 3.1 2 3.6 4.9 4.1 4.3.7 10.7 5.9 8.6 7q-.7.2-1.2.1-.4 0-.7.3-.2.4-1.2 0-1-.6-1.3-.1l-2.2 1q-1.7.5-1.9.8t-.5.3c-.3-.1-1 .5-1.5 1-1.1 1.2-1.4 1.2-1.7.2-.3-1.1-3.1-1-3.1 0q0 .8-.6.8t-.6 1.4c0 .8-.3 2-.7 2.5-1.8 2.5-3 5.7-2.1 5.7s.8 2.6 0 4.5c-1.1 2.2-1.2 2.3-2 .7a418 418 0 0 1-23.6-46c0-1 1.3-1.8 4.8-2.8 1.7-.4 3.7-1 4.6-1.4 2-.7 2.8-.7 3.3-.1m-23.4 5.5c-3.8 1.8-3.7 1.3-3.7 14 0 8.2.2 11.8.6 14.2 1 4.8.9 8.9-.1 10.8L172 78c-3.2 5.2-4.2 4.7 18.5 9.3 20.2 4.1 21.3 4.3 22.5 3.6 1-.5 9.7-17.5 9.7-19 0-.5-3.4-7.8-7.6-16.2-9.7-19.4-19.2-39.2-20.2-41.8-1-2.8-1-2.7-3.7-1.4m1.9 2.5 14.4 30.7c2.6 5 4.4 10.5 3.6 11-.2.1-.5 1.2-.8 2.3-.6 2.7-2 5.5-2.6 5.5s-.8.7-1.2 4.1c-.2 1.9-.1 2.3.4 2.3 1.1 0 .6 4-.5 4-1.5 0-3.3 2.7-3.3 4.9q0 1.1-.7 1.1c-1 0-2.1 2-2 3.7q0 1.1.2.6.1-.7.5-.7t.4-.6q0-.7.4-.6t.3.5q0 .8.6 1.3l.9.7-1.2.4c-.7.2-2 .2-3 .1l-3.8-.4-9.4-1.6-10.3-1.8c-3.3-.6-4-1.1-3.3-2.5l13-21.1c5.3-8.4 5.3-8.6 4.5-16.4q-.7-6.1-.7-17.2v-11l1-.9c1.4-1.2 1.5-1.2 2.6 1.6m42.3 18.6q-.6.1-.7.7-.2.8-.8 1c-2 1.4-1 1.8 2.2 1a10 10 0 0 1 3.1-.5q.6.2.7-.3l-.6-.6q-.7 0-1.9-.7t-2-.6m-3.8 4q-.4.5-.3 1 .4.4.7-.5.6-1.6-.4-.6M181 44.2a25 25 0 0 1-10.8 6.8c-6.5 2.2-15.8 5.5-15.7 5.6.2.3 3.7-.8 9.3-2.8 5.3-2 9-3 9-2.8s6.6-4.3 7.7-5.3c1-1 1.2-1 1.5-.5.8 1.3.3 2.7-3 8.2l-9 14.8-6 9.7c-1.5 1.8-12.1-4.3-10.9-6.3q2.1-3.4-3-6l-1.9-1.1c-.6-1 4-6.9 5.4-6.9q.3 0 .4-.4c0-1.7-4.6 3-6.3 6.3-1.2 2.5-1 2.7 2 3.9q4 1.5 1 3.8c-1.7 1.5-1.7 1.4 5.3 5.6 7.9 4.7 7.7 4.7 11.4-1.5l9.3-15.3c7.9-12.7 8-13 7.4-16.3l-.4-2.3zm46.3 0q-.4 1 0 1c.3 0 .9-1.6.6-1.8zm-.5 3.5q0 .5-.9.9l-.9.3 1 .3q1.6.4 1-1.5 0-.9-.2 0m-121 9.1a25 25 0 0 1-8.6.2c-5.1-.4-4.8-.8-3.2 3.4q.8 2.2.8 5c0 3.1.5 4.1 3.4 7.8 2.5 3.2 2.8 4.2 3.2 10.7.3 6 .7 8.6 1.8 10.1 3.2 4.5.9 5.1-12 3-11-1.8-11.4-1.8-14.8 1-4 3.3-6.2 1.8-12-8q-6-10.1-12.8-.1c-1.6 2.2-2.3 2.5-4.3 2a97 97 0 0 0-23.6 2.8c-4.8 1.5-8 5.2-5.9 7 .5.3 1.8.4 5.2.2 7-.4 8.9 1.6 4 4.1-2.6 1.3-2.8 2.3-.8 4.4q2.7 3.2.3 3.8l-2.3.6q-1.1.3-2.5.4h-1.4l2.8 2.3a12 12 0 0 1 4.2 4.7c2 4 2 4.1 6.3 2.9 5.7-1.7 5.6-1.8 17.2 4.8l8.3 4.6 3.3 1.7 2.6-.7c3.2-.7 4-.4 5.7 2.6.7 1.2 1.9 2.6 2.6 3s1.8 1.4 2.5 2l1.2 1.3-.6 2.3-.7 3.9-.2 1.5 1.8-.2 3.7-1c1-.5 16.8-5.9 35-12a435 435 0 0 0 34-11.9c.7-.7 1.6-3.6 4.4-14.4l5-19c2.1-7.8 2-8.3-1.9-10.6-4.3-2.6-9.6-6.3-11.5-7.9l-1.8-1.5-2.6.2c-2.1.2-4 0-9.2-1a146 146 0 0 0-14.5-2.3c-3.5-.4-3.8-.6-6.4-4.4-2.2-3.3-2.2-3.3-.7-5 2.6-3-.5-5.7-5-4.3m4.2.6c.3.4.2 1-.6 3-1.2 2.7-1.1 3 1.4 6 3.8 4.6 3 4.2 7.7 4.7q7.1.7 15.6 2.6c2.1.4 5 .8 6.5.9 2.4 0 2.6.1 5.3 2.3 1.5 1.2 4.8 3.5 7.3 5.1 7.2 4.6 6.9 3 3.6 15l-4.8 18.3a81 81 0 0 1-3.2 10.3c-.3.5-4.5 2.1-10.2 4l-33 11.2c-12.9 4.3-24 8.1-24.5 8.4-3 1.1-5 .2-3.7-1.8 1.5-2.4.7-4.6-3-7.5-1-.8-2.5-2.5-3.1-3.7-1.5-2.5-3-3.3-5.3-2.6-3.6 1-5 .5-15.8-5.7-9.6-5.6-10.7-6-14.7-4.9-4.8 1.4-5.9 1.2-7.3-1.4l-2.3-3.7q-2-2.5.5-2.7c3.2 0 3.6-2.5 1-5.7-1.2-1.4-1-2 1.2-3 5.3-2.6 2.4-6.2-4.7-6-5.8 0-7-.7-4.6-3 2.7-2.8 13.4-4.9 24.8-5 6.8 0 5.6.6 9.2-4q5.5-7.6 11.2 2.7c1.2 2.2 4 6 5.9 8.1 1.5 1.7 4.1 1.3 6.3-1 2.4-2.6 5-2.7 16.5-.5 11.3 2.2 13.9 1.3 11.1-4a33 33 0 0 1-2.3-13.5c0-4.1-.4-5-3-8.3-2.5-3.1-3-4.2-3.4-9-.5-5.4-.3-6 2.3-5.5s6.9.3 8.1-.2c1.5-.6 3.4-.6 4 0m98.5 1.9q0 1.2.2.7v-1.4q-.2-.5-.2.7m67.7 5.6c-13.8 10.5-13.5 10.3-19.3 9-5-1-25.6-1-27.2 0-1 .6-9.7 18-9.7 19.4 0 1 .7 1.7 6.8 7 7.1 6.2 6.7 6 12.8 5.7 5-.3 6-.5 10.6-2.5 2.2-1 2.8-1 9-1h6.5l3.3-1.4c4-1.8 4.7-2.4 5.8-6.2 1-3.7 1.5-4.4 6-10.1 3-3.7 4.3-5.9 7.5-12.2 2.4-4.8 4.1-7.7 4.5-7.7.6 0-7.7-4.6-9-5-.6 0-2.8 1.4-7.6 5m22.2 2q0 .2.9.6 1 .2.4.5a19 19 0 0 0-2.5 6.8c0 1.3 1 .6 1.4-1 .3-1.1 1.7-3.1 2.1-3l1-.3q.6-.4.8 0c.1.5 3 1 3.5.6q.4-.3 0-.9c-.5-.6-.3-.6 2.2-.4 8.2.8 8.4.8 7.8.3a61 61 0 0 1-15.1-3c-2-.7-2.5-.7-2.5-.2M166.6 88.9c-.6 1-1.2 3.2-6.2 22.7-4.8 18.7-5.7 15.1 6.9 27.5q35 34.5 36.8 34.5c1.4 0 15.4-20.6 25.3-37.2 5.4-9 5.9-9.6 12.7-15.6 6.3-5.5 5.5-7.2-3.4-7.2-8 0-7.6.2-15.5-7.1-9.4-8.7-9.7-8.8-24.6-11.9L182.9 91c-14.3-3.3-15.4-3.5-16.3-2.1m121.5.8q-.8.9-2 1.8c-1.3 1-2.3 3.1-1.7 3.5q.9.5 2.5-2.1.8-1.4 1.6-2.2c.6-.6 1-1.9.5-1.9zM168 97.3q-.1 1.2-.8 1.3-.6.2-.5-.4l.4-1.7c.3-1.5 1.1-.8 1 .8m103.7 11.8c-2.3 1-2.7 1.8-.7 1.5q1.5-.3 1.7-.7t.6-.4l1-.6c.8-.9-.4-.8-2.6.2m-17.4.8c-1 .6-.9 1.1.5 3q3.3 4.2-2.1 10c-2.4 2.7-2.4 2.8 1 4 3 1 5.7 0 3.2-1.3-.7-.4-.6-1 .4-3.8q.5-1.5 1.1-1.4.6 0 .7-1a2 2 0 0 1 1.1-1.4c1-.5 1.4-2.7.5-3.6s0-1.7 1.5-1.7c3 0 1.7-1.4-2.2-2.6-2.4-.7-4.7-.8-5.7-.2m-112.1 26.4-55 18.1q-2.7.9-.4 3.3c2.2 2.6 1.6 4-2.3 6q-3.4 1.6-1.2 2.6.9.6 2.1 2l3.4 3.8c1.2 1.3 2.7 3.2 3.4 4.3 1.1 1.8 1.6 2 9.4 6 12 5.9 12.4 6.2 12.4 13.1 0 3.9 0 4 1 5s15.2 10.2 17.3 11.3c1.3.8 1.7 0 3.1-7.6l3.8-18.9a947 947 0 0 0 8.4-44.7c1.3-6.5 1.4-6.4-5.4-4.3m13.3 1c-.6.6-.7.8-4.1 19.8-2.7 14.6-7.7 40.5-9.6 49.3-1.6 7.2-1.7 8.9-.7 9.3 1.8.7 40.3-20.7 54.7-30.5 6.1-4.1 7.9-1.4-17-26.4-22.8-22.7-22.4-22.4-23.3-21.5m-5 43.8c.3.7.2 1.5-.2 3.3-1 4-1.2 10-.3 10.2 1.6.4 2 5.3.4 5.3q-1.1.2-1.2 3.6 0 1-.6 1.3t-.6 2c0 2.5-3.1 6.3-5.2 6.3-.7 0 .8-8 3.4-17.6.8-3.2 1.7-7 2.4-10.6.8-4.7 1-5.2 1.8-3.8m49.6 18.3a36 36 0 0 0-6 5.4c-.8 1.3-.1 3.7.7 3 4-3.8 8.4-6.8 9.3-6.3q.8.5 1.1.2t-.2-.2q-.7 0-2.1-1.4c-2-1.6-1.6-1.6-2.8-.7m-49.6 3.2c0 .9-.8 1.5-.8.6q0-.8.4-.9t.4.3m43.5 13c-.2 1.8-.3 8.2-.3 14.2 0 12.7-.3 13.9-3 12l-3.2-2a745 745 0 0 0-29.3-17.7q-3-1.4 1 1.5l4 3.1a66 66 0 0 0 10.6 7.1l4.9 3c1.8 1 5 3.3 7.4 5q10.6 7.5 9.4-.2c-.4-2.4-.5-4.9 0-8.6.2-2.7.1-4-.3-6a41 41 0 0 1-.7-8.5q0-10-.5-3m-75.1-2.5 1.6 2.8c.9 1.4 1.7 3.7 2 4.9.8 3.2 1.4 3.7 4 3 4.9-1.5 5.8-2.3 3.9-3.6-8.2-5.8-11.5-7.9-11.5-7.1m-8.8 3.8q-.7 2.4-2.4 13.3l-1.4 8.4c-.8 4.6-.8 6.2.1 6 1.3-.4 3.3 1.6 3.3 3.2s-.7 2.4-3.3 3.2q-2.1.6-2.6 1.5c-.7 1.3-7.6 23.8-7.9 25.8q-.3 2.6.8 1.3.3-.3.8-.4c.6 0 8.8-4.4 13.3-7.2 6.5-4 35-19.3 37.5-20.1l3.3-1.4 1.7-.8-2.3-2a275 275 0 0 0-21.5-16.9l-3.5.8c-7.3 2-8.3 1.2-10.3-7.9-1.3-5.6-1.7-6.5-3.7-7.5-1.4-.8-1.4-.8-1.9.7m141.1 4.4L229.6 235l-7.2 4.4c-3.7 2.3-4.8 3.3-4.5 4.1.5 1.4 3 .1 13.3-6.6l11-7q15.2-9.4 15-11c0-1.2-.7-1-6 2.5m26.3 10.2-5 4.3a159 159 0 0 1-11.9 9.8l-5.8 4.8-9 7.4-7.1 5.8q-3.3 2.5-2.5 4.3.2 1 .6 0 .5-.6 1-.7c.5-.1 2-1.2 3.5-2.7l7.7-7.1 5-4.6 3.8-3.2c2-1.7 4.6-3.8 5.8-5l5.2-4.6 6.5-5.6c2.7-2.2 4.4-4 3.7-4zm-125.7 25.8a713 713 0 0 0-42.9 22.9c-4.6 2.6-9.2 5-10.1 5.3-4 1.4-12.4 6.4-12.4 7.4q0 .6 5.3 2.6c4.2 1.5 5 3.3 2.8 6.4l-1.3 1.9 3.3.1c3 0 3.8.2 9.3 2.4 7.3 2.8 19 6.6 20.5 6.6 1.8 0 6.7-7 18.2-25.8a672 672 0 0 1 17.3-26.3l1-1.2-2.3-2.3c-2.9-2.9-2.3-2.9-8.7 0m.2 2.7c0 .5-2.4 2.3-4.9 3.7-1.2.7-2.5 1.5-2.7 1.8s-.7.6-1 .6c-.7 0-1.8 2.5-1.8 4 0 1.3-1 2.8-1.7 2.8-.2 0-1.3.8-2.3 1.8q-2 1.8-2.7 1.5-.9 0-1.6.3-.9.4 0 .4.7 0 .7.6.1.6-1.6.6-1.6 0-2.5.5-1 .4-1 0-.2-.7-.5 0-.4.5-2.8.5c-1.3 0-2.4.2-2.4.4q0 .3-.3 0c-.5-.8-3.3.6-4.6 2.2-2.5 2.9-.2 8.9 3.9 10.2q4.4 1.4 3 3.4c-.4.6-4.1 1.7-4.3 1.2 0-.2-1.4-.2-2.9 0q-5.1.3-8.7-2.1l-3-1.8c-1.4-.6-6.7-.7-6.7-.1s-1 .5-1.3-.1q-.3-.5-.6-.1c-.7.9-6.7.3-8-.7-1-.8 4.3-3.6 8-4.3q2.3-.4 8.4-3.9A1035 1035 0 0 1 151 260c.3-.5 1-.5 1-.1m35.3 3.4c-.2.3-.5 3.7-.6 7.7a970 970 0 0 1-7.7 89.4c-.7 6.5-.2 5.9-7.6 8.6l-8.8 3.2a1530 1530 0 0 1-33.4 11.6c-22 7.4-23.4 7.9-24 8.2-2 1.1 8-1.1 14.4-3.2l31-10 22.8-8.2c10.2-4.6 9.7-3.9 11.3-17 .5-3.6 1-10.3 1.3-14.8l2-33.2a577 577 0 0 0 1.8-42.4c-.4-.6-2-.5-2.5.1m-22.1 3.3-5.7 8.6c-8.8 13-23.7 35.9-24.6 37.9-1.1 2.3.5 3.5 2.8 2a88 88 0 0 1 14.8-5.1c.5 0 2 .7 3.3 1.5 10.4 6.3 10.8 6.3 11.2 1.9l.6-6c.8-8 1.6-16.8 2-23.8a69 69 0 0 1 1.6-15.6c.6-.4-1.7-3-3.2-3.8-1-.5-1-.5-2.8 2.4m-25.9 11.8c.7 0 1 2.3.5 3.8-.3.6-1.6.8-2.8.4-1.3-.6-.6-4.8.8-4.4zm-5.3 13q.3.9 1.4.9 2 0 1 1-.3.5-.4 1.4-.1 1.1-.4 1.1-.4.1-.4-.4t-.4-.4-.5-.3-.3.2q0 .8-.8.7-.7 0-.8.4c-.1.4.5.4 1 .4q1 0 .8.4c-.4.6-1.7.5-2.6-.3s-1-2-.2-2.4q.6-.1.6-1.9c0-2 1.3-2.5 2-.8m-32.6 7.6q2.2 2-1.3 2.1c-2.3.2-2.5 0-1.5-2q1-2.1 2.8 0"/><path fill="#cef14a" d="m211.4 7-4.6 1.4c-3.5 1-4.8 1.7-4.8 2.8a418 418 0 0 0 23.6 46c.8 1.6.9 1.5 2-.7.8-1.9.8-4.5 0-4.5s.3-3.2 2-5.7a5 5 0 0 0 .8-2.5q0-1.4.6-1.4t.6-.7c0-1.1 2.8-1.2 3-.1.4 1 .7 1 1.8-.2q.9-.9 1.5-1t.5-.3c0-.3.9-.6 1.9-.9s2-.7 2.2-1q.3-.3 1.3.1t1.2 0 .7-.2 1.2-.2c2-1-4.3-6.2-8.6-6.9-2.8-.5-3.5-1-5-4l-1.6-4.3c-.7-4-2-4.4-6.5-2.4s-9.2-2.9-9.9-10.5c-.3-3.6-.8-4-3.9-2.8m-20.8 6.3-1 .9v11q0 11 .7 17.2c.8 7.8.8 8-4.5 16.4l-13 21.1c-.7 1.4 0 1.9 3.3 2.5l19.7 3.4 3.8.4c1 .1 2.3 0 3-.1l1.2-.4-.9-.7q-.7-.7-.6-1.3 0-.5-.3-.5t-.4.6q-.1.8-.4.6-.4-.1-.5.7c-.1.8-.2.1-.3-.6 0-1.7 1.1-3.7 2-3.7q.8 0 .8-1.1c0-2.2 1.8-4.9 3.3-4.9 1.1 0 1.6-4 .5-4-.5 0-.6-.4-.4-2.3.4-3.4.6-4.1 1.2-4.1s2-2.8 2.6-5.5c.3-1.1.6-2.2.8-2.3.8-.5-1-6-3.6-11l-4-8.2-6.3-13.4c-1.7-3.6-3.6-7.7-4.1-9.1-1.1-2.8-1.2-2.8-2.6-1.6m48.8 21.5q.5 0 .6.6t-.7.3a10 10 0 0 0-3 .5c-3.3.8-4.4.4-2.3-1q.7-.4.8-1c0-.8 1.3-1 2.7-.1q1.2.7 2 .7M232 38q-.3 1-.7.5-.1-.5.3-1 1-1.2.4.5m-4.3 6.4q-.2.7-.6.8-.2 0 .1-1 1-1.6.5.2m-47.2 1.2c-.7.8-7.5 5.5-7.7 5.3-.2-.1-4.3 1.2-9.1 2.9l-7.3 2.4c-2.3.7-2.3.7-4.8 2.8-1.7 1.5-3.9 4.8-3.5 5.5l2 1.2q5 2.5 2.9 6c-1.2 1.9 9.4 8 10.9 6.2l6-9.7 9-14.8c3.2-5.4 3.7-6.5 3.2-8q-.4-1.2-1.6.2M227 49q0 .6-1.1.3l-1-.3.9-.3q.9-.4 1-1 0-.8.2.1zm-121 8.3c-1.2.5-5.5.6-8 .2-4.3-.7-3.5 9 1 14.5 2.6 3.2 3 4.2 3 8.3 0 5.8.9 10.8 2.3 13.5 2.8 5.3.2 6.2-11.1 4-11.4-2.2-14-2.1-16.5.5-2.2 2.3-4.8 2.7-6.3 1-2-2-4.7-5.9-6-8.1q-5.4-10.3-11-2.7c-3.6 4.6-2.4 4-9.2 4-11.4.1-22 2.2-24.8 5-2.4 2.3-1.2 3 4.6 3 7.1-.2 10 3.4 4.7 6-2.2 1-2.4 1.6-1.2 3 2.6 3.2 2.2 5.7-1 5.7q-2.4 0-.5 2.7l2.3 3.7c1.4 2.6 2.5 2.8 7.3 1.4 4-1 5-.7 14.7 5 10.7 6.1 12.2 6.6 15.8 5.6q3.3-1.1 5.3 2.6c.6 1.2 2 2.9 3 3.7 3.8 2.9 4.6 5.1 3 7.5-1.2 2 .8 3 3.8 1.8l24.5-8.4 33-11.2c5.7-1.9 9.9-3.5 10.2-4 .4-.4 1.8-5 3.2-10.3l4.8-18.3c3.3-12 3.6-10.4-3.6-15l-7.3-5.1c-2.7-2.2-2.9-2.3-5.3-2.3-1.5 0-4.4-.5-6.5-1q-8.6-1.8-15.6-2.5c-4.6-.5-3.9 0-7.7-4.8-2.5-3-2.6-3.2-1.4-6 1.4-3.2 0-4.5-3.4-3m102.7 2.6q-.2.5-.2-.7c0-1.2 0-1 .2-.7s0 1 0 1.4M167 96.6l-.4 1.7q-.2.6.5.4c.8-.1 1.2-2.2.6-2.8q-.4-.4-.7.7m-17.6 84.5-.8 3.9q-1.1 5.7-2.4 10.6a60 60 0 0 0-3.4 17.6c2.1 0 5.2-3.8 5.2-6.4q0-1.5.6-1.9c.3 0 .6-.7.6-1.3q0-3.5 1.2-3.6c1.7 0 1.2-4.9-.4-5.3-1-.3-.8-6.1.3-10.2.4-1.8.5-2.6.1-3.3q-.6-1.5-1-.1m.2 22.2q-.1 1 .4.3.7-1.2 0-1.2-.3 0-.4.9M151 260q-.3.3-1 .4c-.7 0-14.3 6.7-21.6 10.8l-22.3 12.1a35 35 0 0 1-8.4 3.9c-3.7.7-9 3.5-8 4.3 1.3 1 7.3 1.6 8 .7q.3-.4.6.1c.2.6 1.3.7 1.3.1s5.3-.5 6.7.1c.6.3 2 1 3 1.8q3.6 2.4 8.7 2a10 10 0 0 1 2.9.1c.2.5 4-.6 4.3-1.2q1.4-2-3-3.4c-4-1.3-6.4-7.3-4-10.2 1.4-1.6 4.2-3 4.7-2.3q.3.4.3.1.1-.3 2.4-.4 2.4 0 2.8-.5.3-.7.5 0 0 .5 1 0t2.5-.5q1.7 0 1.6-.6t-.7-.6q-.9.1 0-.5.7-.3 1.6-.2.8.3 2.7-1.5 1.7-1.7 2.3-1.8c.8 0 1.7-1.5 1.7-2.8 0-1.5 1-4 1.8-4q.5 0 1-.6l2.7-1.8c2.5-1.4 4.9-3.2 4.9-3.7s-.7-.4-1 .1m-14.3 18.6c-.6 1.3-.3 3.7.3 4 1.2.4 2.5.2 2.8-.4.5-1.5.2-3.8-.5-3.8l-1.5-.2q-1-.2-1.1.4m-4.7 13.6q0 1.8-.6 2c-.8.3-.7 1.5.2 2.3s2.2 1 2.6.3q.1-.4-.8-.4t-1-.4q0-.5.8-.4t.8-.7.3-.2q.1.4.5.3t.4.4q0 .7.4.4.5-.5.4-1.1 0-1 .5-1.4.9-1-1.1-1-1 0-1.4-1c-.7-1.6-2-1-2 1m-33.4 6.9c-1 1.8-.8 2 1.5 2q3.6-.2 1.3-2.2-1.8-2-2.8.2"/></g></svg>